<svg width="1130" height="815" viewBox="0 0 1130 815" fill="none" xmlns="http://www.w3.org/2000/svg">
<g clip-path="url(#clip0_368_1993)">
<path opacity="0.1" d="M656.539 126.55C584.099 124.04 515.099 100.65 449.219 75.06C383.339 49.47 318.069 21.13 247.369 7.56999C201.889 -1.15001 149.879 -2.38001 113.239 22C77.9992 45.42 66.5792 85.97 60.4592 123.55C55.8492 151.82 53.1392 181.55 65.7592 208.05C74.5292 226.43 90.0992 241.88 100.869 259.48C138.319 320.73 111.869 396.27 71.2492 456.07C52.2492 484.13 30.1192 510.89 15.4292 540.75C0.739246 570.61 -6.06075 604.84 6.78925 635.3C19.5392 665.5 49.8992 688.18 82.7892 704.13C149.599 736.53 228.329 745.81 305.099 751.06C475.039 762.68 645.889 757.65 816.279 752.61C879.339 750.74 942.669 748.85 1004.71 739.1C1039.15 733.69 1074.71 725.1 1099.71 704.35C1131.46 678.01 1139.33 633.41 1118.05 600.35C1082.37 544.96 983.699 531.2 958.759 471.75C945.029 439.03 959.129 402.57 979.079 372.23C1021.88 307.12 1093.62 250 1097.4 175.59C1100 124.48 1065.51 73.29 1012.19 49.11C956.289 23.76 878.789 26.95 837.549 68.91C795.119 112.15 720.499 128.77 656.539 126.55Z" fill="#80CBC4"/>
<g opacity="0.9">
<path d="M731.89 238.91H726.56C725.295 238.91 724.27 239.935 724.27 241.2V318.35C724.27 319.615 725.295 320.64 726.56 320.64H731.89C733.154 320.64 734.18 319.615 734.18 318.35V241.2C734.18 239.935 733.154 238.91 731.89 238.91Z" fill="#3A3768"/>
<path d="M397.969 174.88H396.989C395.724 174.88 394.699 175.905 394.699 177.17V199.5C394.699 200.765 395.724 201.79 396.989 201.79H397.969C399.234 201.79 400.259 200.765 400.259 199.5V177.17C400.259 175.905 399.234 174.88 397.969 174.88Z" fill="#3A3768"/>
<path d="M398.48 224.14H396.79C395.525 224.14 394.5 225.165 394.5 226.43V268.69C394.5 269.955 395.525 270.98 396.79 270.98H398.48C399.745 270.98 400.77 269.955 400.77 268.69V226.43C400.77 225.165 399.745 224.14 398.48 224.14Z" fill="#3A3768"/>
<path d="M398.28 287.36H396.89C395.625 287.36 394.6 288.385 394.6 289.65V332.31C394.6 333.575 395.625 334.6 396.89 334.6H398.28C399.544 334.6 400.57 333.575 400.57 332.31V289.65C400.57 288.385 399.544 287.36 398.28 287.36Z" fill="#3A3768"/>
<path d="M690.63 85.95H436.84C415.306 85.95 397.85 103.406 397.85 124.94V721.23C397.85 742.763 415.306 760.22 436.84 760.22H690.63C712.163 760.22 729.62 742.763 729.62 721.23V124.94C729.62 103.406 712.163 85.95 690.63 85.95Z" fill="#3A3768"/>
<path d="M574.19 106.09H535.6C533.463 106.09 531.73 107.823 531.73 109.96V111.63C531.73 113.767 533.463 115.5 535.6 115.5H574.19C576.328 115.5 578.06 113.767 578.06 111.63V109.96C578.06 107.823 576.328 106.09 574.19 106.09Z" fill="#E6E8EC"/>
<path d="M590.401 116.13C593.35 116.13 595.741 113.739 595.741 110.79C595.741 107.841 593.35 105.45 590.401 105.45C587.451 105.45 585.061 107.841 585.061 110.79C585.061 113.739 587.451 116.13 590.401 116.13Z" fill="#E6E8EC"/>
</g>
<path opacity="0.5" d="M682.78 103.52H644.78V108.1C644.78 110.949 644.218 113.771 643.128 116.403C642.037 119.035 640.439 121.426 638.423 123.441C636.408 125.455 634.016 127.052 631.383 128.142C628.751 129.231 625.929 129.791 623.08 129.79H502C496.246 129.79 490.728 127.505 486.659 123.438C482.59 119.37 480.302 113.853 480.3 108.1V103.52H444.69C437.701 103.52 430.999 106.296 426.058 111.238C421.116 116.179 418.34 122.882 418.34 129.87V716.31C418.34 723.299 421.116 730.001 426.058 734.942C430.999 739.884 437.701 742.66 444.69 742.66H682.78C689.768 742.66 696.471 739.884 701.412 734.942C706.354 730.001 709.13 723.299 709.13 716.31V129.87C709.13 122.882 706.354 116.179 701.412 111.238C696.471 106.296 689.768 103.52 682.78 103.52Z" fill="#80CBC4"/>
<path d="M709.6 148.47H418.58V175.33H709.6V148.47Z" fill="#E6E8EC"/>
<path d="M452.169 154.06H427.539V156.3H452.169V154.06Z" fill="#3A3768"/>
<path d="M452.169 160.78H427.539V163.02H452.169V160.78Z" fill="#3A3768"/>
<path d="M452.169 167.5H427.539V169.74H452.169V167.5Z" fill="#3A3768"/>
<path d="M690 164.49H689.09L688.74 164.21C689.888 162.835 690.518 161.101 690.52 159.31C690.511 157.839 690.065 156.404 689.24 155.186C688.414 153.968 687.246 153.023 685.884 152.468C684.521 151.914 683.025 151.776 681.584 152.072C680.143 152.368 678.822 153.085 677.788 154.131C676.754 155.178 676.054 156.507 675.775 157.951C675.497 159.396 675.653 160.89 676.223 162.246C676.794 163.602 677.754 164.758 678.981 165.569C680.209 166.379 681.649 166.808 683.12 166.8C684.906 166.789 686.631 166.156 688 165.01L688.34 165.3V166.22L694.08 171.98L695.8 170.25L690 164.49ZM683.12 164.49C682.095 164.494 681.092 164.193 680.237 163.627C679.383 163.06 678.716 162.252 678.321 161.306C677.925 160.36 677.82 159.318 678.018 158.312C678.215 157.306 678.707 156.381 679.431 155.654C680.154 154.928 681.077 154.432 682.082 154.231C683.088 154.029 684.13 154.131 685.078 154.522C686.026 154.914 686.836 155.578 687.406 156.43C687.976 157.282 688.28 158.285 688.28 159.31C688.284 159.99 688.154 160.663 687.896 161.292C687.638 161.921 687.259 162.493 686.779 162.975C686.3 163.456 685.729 163.838 685.101 164.098C684.473 164.358 683.8 164.491 683.12 164.49Z" fill="#3A3768"/>
<path d="M439.849 236.89C446.648 236.89 452.159 231.379 452.159 224.58C452.159 217.781 446.648 212.27 439.849 212.27C433.05 212.27 427.539 217.781 427.539 224.58C427.539 231.379 433.05 236.89 439.849 236.89Z" fill="#E6E8EC"/>
<path d="M649.731 236.89H478.471V243.61H649.731V236.89Z" fill="#E6E8EC"/>
<path d="M650.289 251.44H479.029V258.16H650.289V251.44Z" fill="#E6E8EC"/>
<path d="M650.85 266H479.59V272.72H650.85V266Z" fill="#E6E8EC"/>
<path d="M439.849 320.84C446.648 320.84 452.159 315.329 452.159 308.53C452.159 301.731 446.648 296.22 439.849 296.22C433.05 296.22 427.539 301.731 427.539 308.53C427.539 315.329 433.05 320.84 439.849 320.84Z" fill="#E6E8EC"/>
<path d="M649.731 320.84H478.471V327.56H649.731V320.84Z" fill="#E6E8EC"/>
<path d="M650.289 335.39H479.029V342.11H650.289V335.39Z" fill="#E6E8EC"/>
<path d="M650.85 349.94H479.59V356.66H650.85V349.94Z" fill="#E6E8EC"/>
<path d="M439.849 404.79C446.648 404.79 452.159 399.279 452.159 392.48C452.159 385.681 446.648 380.17 439.849 380.17C433.05 380.17 427.539 385.681 427.539 392.48C427.539 399.279 433.05 404.79 439.849 404.79Z" fill="#E6E8EC"/>
<path d="M649.731 404.79H478.471V411.51H649.731V404.79Z" fill="#E6E8EC"/>
<path d="M650.289 419.34H479.029V426.06H650.289V419.34Z" fill="#E6E8EC"/>
<path d="M650.85 433.89H479.59V440.61H650.85V433.89Z" fill="#E6E8EC"/>
<path d="M439.849 488.74C446.648 488.74 452.159 483.229 452.159 476.43C452.159 469.631 446.648 464.12 439.849 464.12C433.05 464.12 427.539 469.631 427.539 476.43C427.539 483.229 433.05 488.74 439.849 488.74Z" fill="#E6E8EC"/>
<path d="M649.731 488.74H478.471V495.46H649.731V488.74Z" fill="#E6E8EC"/>
<path d="M650.289 503.29H479.029V510.01H650.289V503.29Z" fill="#E6E8EC"/>
<path d="M650.85 517.84H479.59V524.56H650.85V517.84Z" fill="#E6E8EC"/>
<path d="M439.849 572.69C446.648 572.69 452.159 567.179 452.159 560.38C452.159 553.581 446.648 548.07 439.849 548.07C433.05 548.07 427.539 553.581 427.539 560.38C427.539 567.179 433.05 572.69 439.849 572.69Z" fill="#E6E8EC"/>
<path d="M649.731 572.69H478.471V579.41H649.731V572.69Z" fill="#E6E8EC"/>
<path d="M650.289 587.24H479.029V593.96H650.289V587.24Z" fill="#E6E8EC"/>
<path d="M650.85 601.79H479.59V608.51H650.85V601.79Z" fill="#E6E8EC"/>
<path d="M439.849 656.64C446.648 656.64 452.159 651.129 452.159 644.33C452.159 637.531 446.648 632.02 439.849 632.02C433.05 632.02 427.539 637.531 427.539 644.33C427.539 651.129 433.05 656.64 439.849 656.64Z" fill="#E6E8EC"/>
<path d="M649.731 656.64H478.471V663.36H649.731V656.64Z" fill="#E6E8EC"/>
<path d="M650.289 671.19H479.029V677.91H650.289V671.19Z" fill="#E6E8EC"/>
<path d="M650.85 685.74H479.59V692.46H650.85V685.74Z" fill="#E6E8EC"/>
<path opacity="0.1" d="M650.279 723.8C667.588 723.8 681.619 709.769 681.619 692.46C681.619 675.152 667.588 661.12 650.279 661.12C632.971 661.12 618.939 675.152 618.939 692.46C618.939 709.769 632.971 723.8 650.279 723.8Z" fill="black"/>
<path d="M650.281 720.44C665.734 720.44 678.261 707.913 678.261 692.46C678.261 677.007 665.734 664.48 650.281 664.48C634.828 664.48 622.301 677.007 622.301 692.46C622.301 707.913 634.828 720.44 650.281 720.44Z" fill="#80CBC4"/>
<path d="M314.089 115.85L259.359 145.42C259.183 145.525 259.039 145.676 258.942 145.856C258.844 146.036 258.797 146.239 258.806 146.444C258.814 146.648 258.877 146.847 258.988 147.019C259.1 147.191 259.256 147.329 259.439 147.42L268.779 150.93C269.322 151.141 269.762 151.553 270.009 152.08L277.259 167.02C277.399 167.68 278.619 167.85 278.629 167.18L277.519 154.84C277.586 153.923 277.935 153.05 278.519 152.34L306.899 124.54C306.981 124.462 307.079 124.406 307.187 124.374C307.295 124.343 307.409 124.338 307.519 124.36C307.619 124.389 307.71 124.441 307.785 124.512C307.861 124.584 307.918 124.672 307.952 124.77C307.986 124.868 307.997 124.972 307.982 125.075C307.968 125.178 307.929 125.275 307.869 125.36L283.409 155.42C282.878 156.145 282.535 156.99 282.409 157.88L280.999 168.54C281.119 169.47 281.849 169.82 282.429 168.99L287.699 162.8C287.783 162.68 287.89 162.578 288.013 162.5C288.137 162.421 288.275 162.369 288.42 162.344C288.564 162.32 288.712 162.325 288.854 162.359C288.997 162.392 289.131 162.454 289.249 162.54L302.829 172.44C302.978 172.55 303.152 172.62 303.336 172.644C303.519 172.668 303.706 172.646 303.878 172.579C304.05 172.513 304.203 172.404 304.322 172.262C304.441 172.121 304.523 171.951 304.559 171.77L315.699 117.08C315.747 116.873 315.734 116.656 315.662 116.456C315.59 116.256 315.462 116.081 315.294 115.952C315.125 115.822 314.923 115.744 314.711 115.726C314.5 115.708 314.287 115.751 314.099 115.85H314.089Z" fill="#80CBC4"/>
<path d="M892.001 127.47L837.271 157.08C837.095 157.186 836.952 157.337 836.855 157.518C836.759 157.699 836.713 157.902 836.722 158.107C836.731 158.311 836.795 158.51 836.908 158.681C837.02 158.852 837.177 158.99 837.361 159.08L846.691 162.6C846.962 162.7 847.211 162.853 847.422 163.051C847.633 163.248 847.803 163.486 847.921 163.75L855.181 178.68C855.321 179.34 856.531 179.52 856.551 178.85L855.441 166.5C855.505 165.586 855.855 164.715 856.441 164.01L884.811 136.21C884.891 136.131 884.99 136.073 885.098 136.042C885.206 136.01 885.321 136.006 885.431 136.03C885.531 136.058 885.624 136.109 885.7 136.18C885.776 136.25 885.835 136.339 885.87 136.437C885.905 136.535 885.917 136.64 885.903 136.743C885.889 136.846 885.851 136.945 885.791 137.03L861.321 166.95C860.789 167.678 860.445 168.527 860.321 169.42L858.851 180.08C858.971 181.01 859.701 181.37 860.291 180.53L865.561 174.35C865.644 174.23 865.751 174.128 865.875 174.049C865.999 173.971 866.137 173.918 866.281 173.894C866.425 173.87 866.573 173.875 866.716 173.908C866.858 173.942 866.992 174.004 867.111 174.09L880.691 183.98C880.839 184.09 881.012 184.16 881.195 184.185C881.378 184.209 881.564 184.187 881.736 184.12C881.908 184.053 882.06 183.944 882.178 183.802C882.296 183.66 882.376 183.491 882.411 183.31L893.551 128.62C893.598 128.413 893.585 128.196 893.513 127.996C893.442 127.796 893.314 127.621 893.145 127.492C892.977 127.362 892.775 127.284 892.563 127.266C892.351 127.248 892.139 127.291 891.951 127.39L892.001 127.47Z" fill="#80CBC4"/>
<path d="M554.261 19.13L516.891 39.34C516.762 39.4088 516.655 39.5124 516.582 39.6389C516.51 39.7653 516.474 39.9097 516.479 40.0555C516.484 40.2014 516.53 40.3428 516.612 40.4638C516.693 40.5848 516.807 40.6805 516.941 40.74L523.321 43.14C523.691 43.2813 523.992 43.5609 524.161 43.92L529.161 54.12C529.261 54.57 530.091 54.69 530.101 54.24L529.341 45.8C529.388 45.1772 529.626 44.5839 530.021 44.1L549.401 25.1C549.455 25.0467 549.522 25.0079 549.595 24.9869C549.669 24.966 549.746 24.9636 549.821 24.98C549.894 24.9968 549.961 25.0321 550.017 25.0825C550.073 25.1329 550.115 25.1967 550.139 25.2679C550.163 25.3391 550.168 25.4152 550.155 25.4891C550.141 25.563 550.109 25.6322 550.061 25.69L533.361 46.12C533.01 46.6186 532.787 47.1954 532.711 47.8L531.711 55.08C531.791 55.72 532.281 55.96 532.711 55.39L536.311 51.17C536.424 51.0199 536.59 50.9182 536.775 50.8848C536.961 50.8515 537.152 50.889 537.311 50.99L546.581 57.75C546.682 57.8248 546.801 57.8726 546.927 57.8891C547.052 57.9056 547.179 57.8902 547.297 57.8443C547.415 57.7984 547.519 57.7236 547.6 57.6266C547.681 57.5297 547.736 57.4139 547.761 57.29L555.371 19.95C555.406 19.8082 555.4 19.659 555.352 19.5209C555.304 19.3827 555.217 19.2615 555.101 19.1723C554.985 19.083 554.846 19.0296 554.7 19.0185C554.554 19.0074 554.409 19.0392 554.281 19.11L554.261 19.13Z" fill="#80CBC4"/>
<path d="M766.93 0.0999485L729.56 20.32C729.434 20.3897 729.33 20.493 729.259 20.6184C729.188 20.7438 729.154 20.8864 729.159 21.0303C729.164 21.1742 729.209 21.3139 729.289 21.4339C729.368 21.5538 729.48 21.6494 729.61 21.7099L735.99 24.11C736.364 24.2518 736.666 24.5359 736.83 24.9L741.78 35.0899C741.88 35.5399 742.71 35.6599 742.72 35.2099L742 26.7799C742.047 26.1538 742.284 25.557 742.68 25.07L762.06 6.06995C762.115 6.01671 762.182 5.97786 762.255 5.95692C762.328 5.93597 762.406 5.93357 762.48 5.94995C762.553 5.96676 762.621 6.00205 762.677 6.05246C762.733 6.10286 762.775 6.1667 762.799 6.23789C762.823 6.30908 762.828 6.38524 762.814 6.45913C762.801 6.53301 762.768 6.60215 762.72 6.65995L746 27.11C745.65 27.6086 745.427 28.1854 745.35 28.79L744.35 36.08C744.43 36.71 744.93 36.9499 745.35 36.3799L748.95 32.1599C749.007 32.0788 749.079 32.0098 749.163 31.9568C749.247 31.9038 749.34 31.8679 749.438 31.8511C749.535 31.8344 749.635 31.8372 749.732 31.8593C749.828 31.8814 749.92 31.9224 750 31.9799L759.28 38.7399C759.381 38.8151 759.5 38.8634 759.624 38.88C759.749 38.8967 759.876 38.8813 759.993 38.8352C760.11 38.7892 760.214 38.714 760.294 38.6169C760.374 38.5197 760.428 38.4037 760.45 38.2799L768 0.939949C768.036 0.798178 768.03 0.649033 767.982 0.510868C767.934 0.372702 767.847 0.251543 767.731 0.162288C767.615 0.0730339 767.476 0.0195781 767.33 0.00850261C767.184 -0.0025729 767.038 0.0292133 766.91 0.0999485H766.93Z" fill="#80CBC4"/>
<path d="M909.05 259.82L798.73 250.71C798.35 250.67 797.966 250.739 797.625 250.91C797.283 251.081 796.997 251.346 796.802 251.675C796.606 252.003 796.508 252.38 796.521 252.762C796.533 253.144 796.654 253.515 796.87 253.83L807.36 268.15C807.666 268.564 807.886 269.034 808.01 269.533C808.134 270.033 808.157 270.551 808.08 271.06L804.36 300.36C803.93 301.47 805.57 302.92 806.24 301.94L816.6 282.42C817.585 281.121 818.953 280.163 820.51 279.68L889.81 265.86C890.005 265.823 890.206 265.834 890.396 265.891C890.585 265.949 890.758 266.051 890.9 266.19C891.035 266.332 891.131 266.506 891.18 266.695C891.23 266.884 891.231 267.082 891.183 267.272C891.135 267.462 891.04 267.636 890.907 267.779C890.773 267.922 890.606 268.029 890.42 268.09L824.89 288.92C823.409 289.508 822.095 290.448 821.06 291.66L808.51 306.12C807.79 307.63 808.51 308.86 810.21 308.19L824.08 304.1C824.569 303.916 825.11 303.929 825.588 304.139C826.066 304.348 826.444 304.736 826.64 305.22L837.24 333.16C837.365 333.46 837.56 333.726 837.81 333.933C838.061 334.141 838.358 334.285 838.676 334.352C838.994 334.419 839.324 334.407 839.636 334.318C839.949 334.229 840.235 334.065 840.47 333.84L910.24 263.21C910.503 262.943 910.685 262.608 910.767 262.243C910.849 261.878 910.827 261.497 910.703 261.144C910.579 260.791 910.358 260.479 910.066 260.245C909.774 260.011 909.422 259.864 909.05 259.82Z" fill="#80CBC4"/>
<path d="M611.661 371.08C612.716 372.529 613.983 373.81 615.421 374.88C616.351 375.65 617.311 376.44 618.311 377.14C618.591 377.34 618.881 377.53 619.171 377.72C619.171 377.77 619.111 377.82 619.091 377.88C618.858 378.304 618.767 378.791 618.831 379.27C619.032 379.848 619.405 380.35 619.901 380.71C622.242 382.87 623.824 385.729 624.411 388.86C624.751 390.67 623.531 392.61 623.611 394.45C623.789 396.257 624.269 398.021 625.031 399.67C626.561 403.55 628.181 407.58 631.231 410.41C631.957 416.643 634.358 422.563 638.181 427.54C641.401 431.65 645.681 434.77 649.911 437.82C651.247 438.886 652.7 439.799 654.241 440.54C655.633 441.053 657.069 441.438 658.531 441.69C670.949 444.187 683.558 445.612 696.221 445.95C696.574 453.483 696.727 461.013 696.681 468.54C696.752 469.779 696.575 471.02 696.161 472.19C695.555 473.291 694.823 474.318 693.981 475.25C691.091 479.09 690.981 484.31 691.181 489.12C691.476 494.751 692.144 500.357 693.181 505.9C694.491 513 693.291 520.84 695.811 527.6C696.811 530.27 697.811 532.93 698.811 535.6C699.143 536.35 699.343 537.152 699.401 537.97C699.401 539.72 698.241 541.21 697.401 542.73C696.159 544.946 695.553 547.462 695.651 550C695.643 550.284 695.716 550.565 695.861 550.81C696.191 551.25 696.861 551.21 697.401 551.13C699.615 550.808 701.845 550.601 704.081 550.51C703.68 551.011 703.318 551.543 703.001 552.1C702.46 553.039 701.986 554.015 701.581 555.02C700.773 556.692 700.137 558.441 699.681 560.24C699.6 560.502 699.537 560.77 699.491 561.04C699.371 561.58 699.261 562.13 699.171 562.67C698.689 565.846 698.491 569.059 698.581 572.27C698.271 578.27 697.971 584.51 697.391 586.33C696.571 588.92 697.591 593.06 698.601 597.01C698.649 599.737 699.139 602.439 700.051 605.01C700.135 607.847 700.469 610.672 701.051 613.45C704.511 632.943 708.177 652.39 712.051 671.79C712.401 673.48 712.731 675.16 713.181 676.79C714.639 682.186 717.188 687.227 720.671 691.6C723.728 695.474 726.351 699.673 728.491 704.12C728.261 705.18 728.021 706.24 727.771 707.29C725.571 716.58 722.661 725.74 721.651 735.23C721.251 739.01 721.131 742.91 719.651 746.4C718.891 748.18 717.771 749.88 717.651 751.81C717.561 753.037 717.85 754.263 718.481 755.32C718.221 755.51 717.971 755.71 717.731 755.91L717.321 756.25C714.481 758.51 710.671 758.97 707.171 759.88C703.671 760.79 699.901 762.64 698.821 766.12C698.75 766.34 698.693 766.563 698.651 766.79C698.011 769.99 699.951 773.39 702.651 775.27C705.561 777.27 709.181 777.89 712.651 778.34C716.121 778.79 719.771 779.14 722.941 780.7C725.681 782.06 727.991 784.29 730.941 785.27L731.451 785.42C730.801 785.81 730.141 786.19 729.451 786.54C726.445 788.07 723.203 789.084 719.861 789.54C716.481 790.01 712.441 790.23 710.701 793.18C709.281 795.62 710.311 798.91 712.361 800.83C714.411 802.75 717.251 803.61 720.001 804.21C726.272 805.432 732.621 806.221 739.001 806.57L745.211 807.04C751.211 807.5 757.331 807.97 763.411 808.04C770.914 808.061 778.404 807.408 785.791 806.09C786.131 806.079 786.465 805.996 786.772 805.848C787.078 805.7 787.35 805.49 787.571 805.23C787.796 804.793 787.89 804.3 787.841 803.81C787.68 796.212 786.728 788.651 785.001 781.25C784.491 779.03 781.461 782.06 779.761 783.98C779.541 782.87 779.281 781.77 778.991 780.7L780.321 780.07C781.336 779.698 782.196 778.993 782.761 778.07C783.038 777.32 783.127 776.513 783.021 775.72C782.781 770.84 782.481 765.78 780.161 761.49C778.626 758.926 776.718 756.604 774.501 754.6C773.811 739.27 772.311 723.92 768.961 708.96C767.241 701.31 765.111 693.58 760.691 687.11C760.141 686.3 759.541 685.49 758.941 684.68C758.462 677.326 757.571 670.004 756.271 662.75C756.015 661.793 756.015 660.787 756.271 659.83C756.691 659.012 757.234 658.263 757.881 657.61C760.541 654.18 759.451 649.3 759.141 644.96C758.701 638.72 760.141 632.54 761.631 626.46C763.444 618.967 765.247 611.47 767.041 603.97C767.487 601.841 768.122 599.756 768.941 597.74C770.201 594.92 772.151 592.48 773.821 589.88C778.861 581.923 781.236 572.568 780.601 563.17C781.601 563.53 782.601 563.9 783.661 564.3C784.411 558.02 781.761 550.89 783.661 544.99C786.916 542.617 789.545 539.487 791.321 535.87C792.801 532.55 793.221 528.81 794.771 525.52C795.651 523.67 796.881 521.96 797.391 519.97C798.161 516.97 797.201 513.85 797.241 510.78C797.341 504.09 802.241 497.88 801.141 491.27C800.641 488.13 798.821 485.27 798.921 482.04C799.067 480.313 799.503 478.623 800.211 477.04C803.891 467.29 807.521 456.91 805.631 446.65C805.151 444.03 804.301 441.42 804.441 438.75C804.601 435.7 806.051 432.75 805.621 429.7C805.444 428.545 804.976 427.454 804.261 426.53C805.579 424.502 806.701 422.352 807.611 420.11C808.219 418.83 808.524 417.427 808.501 416.01C808.371 415.044 808.048 414.115 807.552 413.276C807.055 412.438 806.395 411.708 805.611 411.13C804.044 409.997 802.369 409.022 800.611 408.22C800.048 407.984 799.546 407.625 799.141 407.17C798.821 406.667 798.543 406.139 798.311 405.59C797.311 403.88 795.181 403.34 793.491 402.31C787.391 398.59 787.981 389 782.771 384.09C781.004 382.516 778.754 381.59 776.392 381.465C774.029 381.34 771.694 382.022 769.771 383.4C769.274 383.898 768.627 384.218 767.931 384.31C767.252 384.159 766.632 383.811 766.151 383.31C764.856 382.435 763.311 382.006 761.751 382.09C760.769 378.281 760.325 374.353 760.431 370.42H760.901C761.514 370.441 762.128 370.37 762.721 370.21C765.401 369.44 766.931 366.67 768.021 364.09C768.974 361.913 769.76 359.667 770.371 357.37C770.431 357.15 770.481 356.93 770.531 356.72C775.661 360.32 781.621 364.09 783.041 363.3C785.671 361.85 771.291 351.62 771.291 351.62C772.981 350.12 773.921 347.41 774.291 345.02C775.131 340.25 775.531 335.29 774.411 330.57C773.291 325.85 770.461 321.36 766.161 319.16C764.261 318.16 761.951 317.5 760.571 315.99C760.36 315.767 760.178 315.519 760.031 315.25C759.942 315.129 759.868 314.998 759.811 314.86C759.659 314.444 759.458 314.048 759.211 313.68C758.421 312.77 756.991 313.05 755.801 313.19H755.421H755.091H754.771C750.511 313.28 746.381 310.9 742.071 310.9C737.341 310.9 733.321 313.64 729.161 315.52C728.321 315.9 727.521 316.25 726.771 316.6C724.171 317.82 722.121 319.12 720.771 322.05C719.949 323.022 719.358 324.167 719.041 325.4C718.904 325.964 718.83 326.54 718.821 327.12C715.235 330.67 712.653 335.106 711.335 339.976C710.017 344.847 710.01 349.979 711.316 354.853C712.622 359.727 715.193 364.169 718.77 367.728C722.346 371.288 726.8 373.838 731.681 375.12C731.781 375.4 731.881 375.68 731.971 375.96C732.836 378.537 733.259 381.242 733.221 383.96C733.221 384.15 733.221 384.34 733.221 384.53C731.047 385.044 728.966 385.891 727.051 387.04C724.613 388.485 722.77 390.75 721.851 393.43C721.787 393.631 721.733 393.834 721.691 394.04C720.172 393.543 718.588 393.27 716.991 393.23C715.541 393.23 713.911 393.34 712.991 394.44C712.618 394.889 712.358 395.421 712.231 395.99C711.681 396.5 711.571 397.38 711.231 398.05C710.021 400.16 706.901 399.47 704.551 400.05C702.001 400.68 699.991 403.05 697.361 403.05C696.369 402.891 695.361 402.854 694.361 402.94C693.361 403.18 692.601 404.53 693.361 405.21C692.775 405.152 692.186 405.256 691.656 405.512C691.127 405.768 690.678 406.165 690.361 406.66C689.641 407.6 689.161 408.72 688.361 409.6C688.014 409.117 687.535 408.746 686.981 408.531C686.427 408.316 685.822 408.267 685.241 408.39C684.084 408.652 682.974 409.091 681.951 409.69C681.498 409.938 681.008 410.11 680.501 410.2C679.906 410.231 679.31 410.177 678.731 410.04C675.917 409.583 673.031 409.988 670.451 411.2C668.171 412.28 665.981 410.3 663.451 410.14C662.531 410.186 661.624 409.907 660.891 409.35C660.411 408.767 660.069 408.084 659.891 407.35C659.327 405.734 658.358 404.289 657.076 403.155C655.795 402.02 654.243 401.233 652.571 400.87C653.225 398.811 653.073 396.58 652.145 394.628C651.217 392.677 649.581 391.151 647.571 390.36C647.736 388.885 647.539 387.393 646.995 386.012C646.451 384.632 645.578 383.405 644.451 382.44C643.896 382.063 643.368 381.649 642.871 381.2C642.211 380.414 641.717 379.502 641.421 378.52L639.201 372.64C638.201 372.44 637.451 372.03 636.521 371.87C636.521 371.68 636.521 371.48 636.521 371.27C636.496 369.263 636.159 367.273 635.521 365.37C634.38 362.273 632.783 359.364 630.781 356.74C628.661 353.74 626.311 350.87 623.161 349.08C622.111 348.51 621.025 348.008 619.911 347.58L614.191 345.22C613.878 345.065 613.539 344.97 613.191 344.94C611.651 344.94 611.371 347.32 612.191 348.59C613.931 351.16 617.851 351.88 618.961 354.79C618.031 354.821 617.134 355.145 616.399 355.716C615.665 356.287 615.13 357.076 614.871 357.97C614.831 358.448 614.638 358.9 614.321 359.26C613.821 359.67 613.031 359.43 612.451 359.74C611.451 360.29 611.881 361.81 611.771 362.96C611.534 363.957 611.199 364.929 610.771 365.86C610.525 366.742 610.477 367.667 610.631 368.57C610.785 369.472 611.137 370.329 611.661 371.08ZM748.781 772.08C748.781 771.49 748.701 770.9 748.651 770.32C748.771 770.63 748.881 770.95 749.001 771.26C750.001 773.9 751.131 776.5 752.311 779.07L752.111 778.96C751.243 778.57 750.323 778.307 749.381 778.18C749.131 778.18 748.871 778.18 748.621 778.11C748.958 776.124 749.011 774.101 748.781 772.1V772.08Z" fill="url(#paint0_linear_368_1993)"/>
<path d="M733.28 386.26C733.17 390.44 731.76 394.48 731.54 398.65C743.83 399.26 755.96 393.3 768.14 395.12C764.74 392.92 762.92 388.95 761.84 385.04C760.483 379.999 760.076 374.75 760.64 369.56C760.674 369.27 760.727 368.983 760.8 368.7C761.25 366.7 762.42 363.77 762.1 362.16C761.69 360.04 759.69 360.46 757.88 360.58C752.377 361.001 746.9 361.709 741.47 362.7C740.06 362.94 726.27 366.38 726.07 366.02C728.498 369.894 730.51 374.013 732.07 378.31C732.92 380.873 733.329 383.561 733.28 386.26Z" fill="#EE8E9E"/>
<path d="M611.66 373.36C612.719 374.8 613.986 376.074 615.42 377.14C616.35 377.91 617.31 378.69 618.31 379.39C620.094 380.769 622.221 381.634 624.46 381.89C627.39 382.09 633.6 380.37 635.46 377.89C636.232 376.63 636.598 375.164 636.51 373.69C636.486 371.693 636.149 369.712 635.51 367.82C634.37 364.738 632.772 361.846 630.77 359.24C628.65 356.3 626.3 353.4 623.15 351.62C622.099 351.054 621.014 350.553 619.9 350.12L614.18 347.78C613.868 347.625 613.528 347.53 613.18 347.5C611.64 347.5 611.36 349.86 612.18 351.13C613.92 353.69 617.84 354.4 618.95 357.3C618.022 357.326 617.126 357.647 616.391 358.214C615.656 358.782 615.12 359.568 614.86 360.46C614.821 360.935 614.628 361.384 614.31 361.74C613.81 362.15 613.02 361.92 612.44 362.22C611.44 362.77 611.87 364.28 611.76 365.43C611.522 366.42 611.187 367.385 610.76 368.31C610.537 369.167 610.502 370.062 610.658 370.934C610.813 371.805 611.155 372.633 611.66 373.36Z" fill="#EE8E9E"/>
<path d="M781.181 792.03C780.241 791.03 778.691 791.24 777.371 791.45C770.275 792.574 763.104 793.156 755.921 793.19C755.021 788.8 757.631 784.53 758.471 780.12C758.589 778.984 758.876 777.872 759.321 776.82C760.321 774.88 762.611 773.99 764.751 773.54C768.621 772.73 774.661 771.29 776.821 775.19C779.411 779.88 780.241 786.81 781.181 792.03Z" fill="#65617D"/>
<path d="M702.591 775.42C705.501 777.42 709.121 778.03 712.591 778.48C716.061 778.93 719.711 779.27 722.881 780.83C725.621 782.18 727.931 784.4 730.881 785.37C733.576 786.108 736.414 786.153 739.131 785.5C742.391 784.89 745.861 783.7 747.621 780.89C749.181 778.39 749.021 775.21 748.801 772.27C748.551 768.94 748.311 765.61 748.061 762.27C748.073 761.426 747.859 760.594 747.441 759.86C745.091 756.42 739.361 761.29 736.291 761.29C731.431 761.29 726.221 758.65 722.721 755.43C722.41 755.111 722.053 754.841 721.661 754.63C720.281 754.01 718.891 755.16 717.661 756.16L717.251 756.5C714.411 758.75 710.601 759.21 707.101 760.12C703.601 761.03 699.831 762.86 698.751 766.32C698.68 766.536 698.623 766.757 698.581 766.98C697.921 770.19 699.861 773.57 702.591 775.42Z" fill="#3F3D56"/>
<path opacity="0.05" d="M702.591 775.42C705.501 777.42 709.121 778.03 712.591 778.48C716.061 778.93 719.711 779.27 722.881 780.83C725.621 782.18 727.931 784.4 730.881 785.37C733.576 786.108 736.414 786.153 739.131 785.5C742.391 784.89 745.861 783.7 747.621 780.89C749.181 778.39 749.021 775.21 748.801 772.27C748.551 768.94 748.311 765.61 748.061 762.27C748.073 761.426 747.859 760.594 747.441 759.86C745.091 756.42 739.361 761.29 736.291 761.29C731.431 761.29 726.221 758.65 722.721 755.43C722.41 755.111 722.053 754.841 721.661 754.63C720.281 754.01 718.891 755.16 717.661 756.16L717.251 756.5C714.411 758.75 710.601 759.21 707.101 760.12C703.601 761.03 699.831 762.86 698.751 766.32C698.68 766.536 698.623 766.757 698.581 766.98C697.921 770.19 699.861 773.57 702.591 775.42Z" fill="black"/>
<path d="M702.59 776.56C705.5 778.56 709.12 779.17 712.59 779.62C716.06 780.07 719.71 780.41 722.88 781.97C725.62 783.32 727.93 785.54 730.88 786.51C733.575 787.248 736.413 787.293 739.13 786.64C742.597 785.906 745.643 783.851 747.62 780.91C749.18 778.41 749.02 775.23 748.8 772.29C748.55 768.96 748.31 765.63 748.06 762.29C748.072 761.446 747.858 760.614 747.44 759.88C745.09 756.44 739.36 761.31 736.29 761.31C731.43 761.31 726.22 758.67 722.72 755.45C722.41 755.131 722.052 754.861 721.66 754.65C720.28 754.03 718.89 755.18 717.66 756.18C718.472 758.658 719.62 761.013 721.07 763.18C722.244 765.021 723.814 766.577 725.665 767.736C727.515 768.895 729.601 769.627 731.77 769.88C733.94 770.04 736.17 769.61 738.27 770.17C740.37 770.73 742.27 772.87 741.58 774.92C740.89 776.97 738.29 777.34 736.17 777.45C733.17 777.62 730.17 777.76 727.34 776.84C725.62 776.26 724.05 775.31 722.34 774.62C715.22 771.62 706.23 773.32 700.34 768.33C699.781 767.819 699.178 767.358 698.54 766.95C697 770.23 699.86 774.69 702.59 776.56Z" fill="#E8EAF2"/>
<path opacity="0.05" d="M702.59 776.56C705.5 778.56 709.12 779.17 712.59 779.62C716.06 780.07 719.71 780.41 722.88 781.97C725.62 783.32 727.93 785.54 730.88 786.51C733.575 787.248 736.413 787.293 739.13 786.64C742.597 785.906 745.643 783.851 747.62 780.91C749.18 778.41 749.02 775.23 748.8 772.29C748.55 768.96 748.31 765.63 748.06 762.29C748.072 761.446 747.858 760.614 747.44 759.88C745.09 756.44 739.36 761.31 736.29 761.31C731.43 761.31 726.22 758.67 722.72 755.45C722.41 755.131 722.052 754.861 721.66 754.65C720.28 754.03 718.89 755.18 717.66 756.18C718.472 758.658 719.62 761.013 721.07 763.18C722.244 765.021 723.814 766.577 725.665 767.736C727.515 768.895 729.601 769.627 731.77 769.88C733.94 770.04 736.17 769.61 738.27 770.17C740.37 770.73 742.27 772.87 741.58 774.92C740.89 776.97 738.29 777.34 736.17 777.45C733.17 777.62 730.17 777.76 727.34 776.84C725.62 776.26 724.05 775.31 722.34 774.62C715.22 771.62 706.23 773.32 700.34 768.33C699.781 767.819 699.178 767.358 698.54 766.95C697 770.23 699.86 774.69 702.59 776.56Z" fill="black"/>
<path d="M779.85 558.68C782.12 569.817 779.968 581.401 773.85 590.98C772.18 593.57 770.23 595.98 768.97 598.8C768.152 600.805 767.516 602.881 767.07 605L761.66 627.42C760.2 633.42 758.73 639.62 759.17 645.82C759.48 650.14 760.57 654.99 757.91 658.41C757.265 659.057 756.722 659.799 756.3 660.61C756.045 661.563 756.045 662.567 756.3 663.52C759.04 679.76 761.06 696.75 756.12 712.46C751.65 726.7 751.39 742.46 747.58 756.92C747.11 758.71 746.58 760.59 745.22 761.85C744.2 762.707 742.978 763.289 741.67 763.54C736.06 764.87 730.14 763.31 724.91 760.88C721.23 759.18 717.27 756.19 717.59 752.15C717.74 750.23 718.86 748.54 719.59 746.77C721.09 743.3 721.21 739.42 721.59 735.66C722.59 726.22 725.51 717.11 727.71 707.87C729.91 698.63 731.41 688.98 729.55 679.67C725.741 660.411 719.648 641.675 711.4 623.86C711.047 622.913 710.479 622.06 709.74 621.37C708.915 620.897 708.129 620.359 707.39 619.76C706.82 618.875 706.454 617.874 706.32 616.83C705.5 613.89 703.07 611.71 701.44 609.13C697.32 602.59 698.63 594.21 698.78 586.49C698.93 578.98 697.85 571.41 699.08 564C700.31 556.59 704.55 549 711.69 546.7C715.23 545.55 719.06 545.81 722.76 546.18C742.39 548.07 761.45 551.63 779.85 558.68Z" fill="#303D5C"/>
<path opacity="0.05" d="M779.85 558.68C782.12 569.817 779.968 581.401 773.85 590.98C772.18 593.57 770.23 595.98 768.97 598.8C768.152 600.805 767.516 602.881 767.07 605L761.66 627.42C760.2 633.42 758.73 639.62 759.17 645.82C759.48 650.14 760.57 654.99 757.91 658.41C757.265 659.057 756.722 659.799 756.3 660.61C756.045 661.563 756.045 662.567 756.3 663.52C759.04 679.76 761.06 696.75 756.12 712.46C751.65 726.7 751.39 742.46 747.58 756.92C747.11 758.71 746.58 760.59 745.22 761.85C744.2 762.707 742.978 763.289 741.67 763.54C736.06 764.87 730.14 763.31 724.91 760.88C721.23 759.18 717.27 756.19 717.59 752.15C717.74 750.23 718.86 748.54 719.59 746.77C721.09 743.3 721.21 739.42 721.59 735.66C722.59 726.22 725.51 717.11 727.71 707.87C729.91 698.63 731.41 688.98 729.55 679.67C725.741 660.411 719.648 641.675 711.4 623.86C711.047 622.913 710.479 622.06 709.74 621.37C708.915 620.897 708.129 620.359 707.39 619.76C706.82 618.875 706.454 617.874 706.32 616.83C705.5 613.89 703.07 611.71 701.44 609.13C697.32 602.59 698.63 594.21 698.78 586.49C698.93 578.98 697.85 571.41 699.08 564C700.31 556.59 704.55 549 711.69 546.7C715.23 545.55 719.06 545.81 722.76 546.18C742.39 548.07 761.45 551.63 779.85 558.68Z" fill="black"/>
<path d="M700.001 605.76C700.064 608.678 700.399 611.584 701.001 614.44C704.461 633.833 708.127 653.167 712.001 672.44C712.351 674.12 712.681 675.79 713.131 677.44C714.593 682.811 717.142 687.825 720.621 692.17C736.921 712.48 738.331 741.98 747.171 766.47C747.761 768.13 748.361 769.79 748.991 771.47C750.591 775.622 752.414 779.684 754.451 783.64C754.686 784.216 755.073 784.717 755.571 785.09C756.121 785.368 756.737 785.489 757.351 785.44C765.317 785.487 773.188 783.697 780.351 780.21C781.368 779.84 782.228 779.135 782.791 778.21C783.068 777.463 783.157 776.659 783.051 775.87C782.811 771.02 782.511 765.98 780.191 761.72C778.655 759.165 776.748 756.853 774.531 754.86C773.841 739.61 772.341 724.34 768.991 709.46C767.271 701.85 765.141 694.16 760.721 687.72C757.461 682.97 752.791 678.29 753.361 672.56C753.621 670.04 754.671 666.91 752.621 665.43C751.731 664.78 750.401 664.7 749.801 663.77C749.554 663.336 749.416 662.849 749.401 662.35C748.982 658.417 749.229 654.441 750.131 650.59C750.872 648.075 751.457 645.517 751.881 642.93C752.141 640.31 751.701 637.48 749.951 635.53C749.841 630.3 749.951 624.87 749.881 619.64C749.679 616.663 749.929 613.672 750.621 610.77C751.011 609.4 751.621 608.09 751.921 606.69C753.021 601.69 750.291 595.69 753.541 591.69C754.891 590.03 756.981 589.21 758.751 588.01C762.301 585.65 764.621 581.78 765.911 577.72C767.048 573.608 767.719 569.382 767.911 565.12C768.006 564.212 768.006 563.297 767.911 562.39C767.851 561.922 767.727 561.464 767.541 561.03C766.541 558.76 763.821 557.88 761.401 557.3C746.041 553.615 730.296 551.775 714.501 551.82C708.661 547.82 705.371 549.26 702.901 553.48C701.525 556.05 700.416 558.754 699.591 561.55C698.461 564.96 698.391 584.1 697.291 587.55C695.891 591.96 700.001 601.08 700.001 605.76Z" fill="#303D5C"/>
<path d="M805.619 431.63C806.049 434.63 804.619 437.63 804.439 440.63C804.299 443.29 805.149 445.88 805.629 448.49C807.519 458.69 803.889 469.02 800.209 478.72C799.499 480.301 799.062 481.992 798.919 483.72C798.819 486.88 800.639 489.78 801.139 492.91C802.189 499.48 797.339 505.66 797.239 512.31C797.239 515.37 798.159 518.49 797.389 521.45C796.879 523.45 795.649 525.13 794.769 526.98C793.219 530.25 792.769 533.98 791.319 537.27C788.639 543.27 782.879 547.14 777.409 550.72C774.289 549.72 770.919 548.45 769.209 545.65C768.457 544.266 767.972 542.753 767.779 541.19C766.589 534.39 766.629 527.44 766.679 520.54C766.581 514.595 766.896 508.651 767.619 502.75C768.729 495.25 771.159 488.02 772.909 480.64C775.109 471.33 776.239 461.71 779.669 452.78C782.669 444.94 787.379 437.89 792.329 431.15C794.209 428.57 795.699 424.9 799.329 425.49C800.879 425.748 802.313 426.475 803.438 427.573C804.563 428.67 805.324 430.086 805.619 431.63Z" fill="#3F3D56"/>
<path opacity="0.05" d="M805.619 431.63C806.049 434.63 804.619 437.63 804.439 440.63C804.299 443.29 805.149 445.88 805.629 448.49C807.519 458.69 803.889 469.02 800.209 478.72C799.499 480.301 799.062 481.992 798.919 483.72C798.819 486.88 800.639 489.78 801.139 492.91C802.189 499.48 797.339 505.66 797.239 512.31C797.239 515.37 798.159 518.49 797.389 521.45C796.879 523.45 795.649 525.13 794.769 526.98C793.219 530.25 792.769 533.98 791.319 537.27C788.639 543.27 782.879 547.14 777.409 550.72C774.289 549.72 770.919 548.45 769.209 545.65C768.457 544.266 767.972 542.753 767.779 541.19C766.589 534.39 766.629 527.44 766.679 520.54C766.581 514.595 766.896 508.651 767.619 502.75C768.729 495.25 771.159 488.02 772.909 480.64C775.109 471.33 776.239 461.71 779.669 452.78C782.669 444.94 787.379 437.89 792.329 431.15C794.209 428.57 795.699 424.9 799.329 425.49C800.879 425.748 802.313 426.475 803.438 427.573C804.563 428.67 805.324 430.086 805.619 431.63Z" fill="black"/>
<path opacity="0.1" d="M726.07 366.02C728.498 369.894 730.51 374.013 732.07 378.31C734.289 378.857 736.565 379.133 738.85 379.13C747.71 379.13 753.99 374.13 759.2 367.72C759.65 365.72 762.46 363.77 762.14 362.16C761.73 360.04 759.73 360.46 757.92 360.58C752.417 361.001 746.94 361.709 741.51 362.7C740.06 362.94 726.27 366.42 726.07 366.02Z" fill="black"/>
<path d="M738.81 378.36C754.495 378.36 767.21 365.645 767.21 349.96C767.21 334.275 754.495 321.56 738.81 321.56C723.125 321.56 710.41 334.275 710.41 349.96C710.41 365.645 723.125 378.36 738.81 378.36Z" fill="#EE8E9E"/>
<path opacity="0.1" d="M702.93 553.42C707.84 553.13 712.79 553.32 717.72 553.52C720.805 553.557 723.881 553.872 726.91 554.46C730.64 555.31 734.13 557.01 737.81 558.07C743.7 559.79 749.91 559.86 756.02 560.47C760.025 560.86 764.005 561.481 767.94 562.33C767.88 561.862 767.756 561.404 767.57 560.97C766.57 558.7 763.85 557.82 761.43 557.24C746.07 553.555 730.325 551.715 714.53 551.76C708.69 547.8 705.4 549.22 702.93 553.42Z" fill="black"/>
<path d="M722.28 396.42C723.52 397.85 725.18 399.42 727.02 398.96C727.683 398.728 728.304 398.39 728.86 397.96C732.13 395.85 736.15 395.35 740 394.77C747.781 393.605 755.467 391.88 763 389.61C765.183 388.816 767.471 388.351 769.79 388.23C774.6 388.23 778.87 391.46 781.88 395.23C784.89 399 787 403.42 790 407.21C792.11 409.91 794.62 412.29 796.59 415.1C801.59 422.19 802.59 431.44 801.34 440C800.09 448.56 796.64 456.64 793.25 464.6C791.442 469.228 789.23 473.689 786.64 477.93C787.78 484.43 787.18 491.87 784.09 497.71C783.09 499.61 781.85 501.46 781.51 503.59C781.36 505.028 781.421 506.48 781.69 507.9L783.14 518.18C783.58 521.31 784.02 524.45 784.59 527.56C785.59 533.25 787.05 539.42 784.41 544.56C781.25 550.72 784.57 558.63 783.74 565.56C774.835 562.111 765.503 559.887 756 558.95C749.9 558.36 743.69 558.28 737.8 556.57C734.12 555.5 730.63 553.8 726.9 552.95C723.872 552.357 720.796 552.042 717.71 552.01C710.9 551.74 704.05 551.47 697.32 552.47C696.77 552.55 696.11 552.59 695.78 552.15C695.635 551.909 695.562 551.631 695.57 551.35C695.471 548.824 696.077 546.321 697.32 544.12C698.17 542.6 699.32 541.12 699.32 539.38C699.263 538.565 699.063 537.766 698.73 537.02L695.73 529.02C693.21 522.3 694.41 514.5 693.1 507.44C692.064 501.927 691.396 496.352 691.1 490.75C690.86 485.96 691.01 480.75 693.9 476.94C694.742 476.029 695.474 475.022 696.08 473.94C696.494 472.777 696.671 471.543 696.6 470.31C696.66 460.73 696.397 451.153 695.81 441.58C698.33 437.05 700.96 432.42 703.48 427.9C706.41 422.63 709.38 417.26 710.57 411.35C711.35 407.43 711.32 403.4 711.88 399.45C711.938 398.449 712.286 397.487 712.88 396.68C713.88 395.59 715.47 395.43 716.88 395.48C718.718 395.51 720.54 395.827 722.28 396.42Z" fill="#3F3D56"/>
<path opacity="0.1" d="M618.311 379.42C620.094 380.799 622.221 381.664 624.461 381.92C627.391 382.12 633.601 380.4 635.461 377.92C636.232 376.66 636.598 375.194 636.511 373.72C636.115 373.595 635.705 373.518 635.291 373.49C632.113 373.14 628.9 373.268 625.761 373.87C622.661 374.63 619.671 376.51 618.361 379.42C618.321 379.42 618.321 379.42 618.311 379.42Z" fill="black"/>
<path d="M712.79 440.81C711.07 442.97 709.26 445.18 706.79 446.46C703.97 447.92 700.65 447.95 697.47 447.89C684.369 447.608 671.319 446.176 658.47 443.61C657.008 443.357 655.572 442.973 654.18 442.46C652.639 441.722 651.187 440.813 649.85 439.75C645.62 436.75 641.34 433.62 638.12 429.53C634.301 424.581 631.898 418.688 631.17 412.48C628.12 409.67 626.5 405.67 624.97 401.8C624.21 400.165 623.73 398.414 623.55 396.62C623.47 394.78 624.69 392.85 624.35 391.04C623.76 387.924 622.178 385.082 619.84 382.94C619.346 382.583 618.973 382.084 618.77 381.51C618.706 381.034 618.797 380.55 619.03 380.13C620.33 377.21 623.32 375.33 626.42 374.57C629.563 373.968 632.779 373.84 635.96 374.19C637.018 374.39 638.061 374.668 639.08 375.02L641.3 380.87C641.597 381.849 642.09 382.758 642.75 383.54C643.247 383.986 643.775 384.397 644.33 384.77C645.457 385.726 646.331 386.945 646.875 388.32C647.419 389.694 647.617 391.181 647.45 392.65C649.457 393.431 651.091 394.947 652.02 396.89C652.949 398.834 653.102 401.058 652.45 403.11C654.118 403.47 655.666 404.25 656.948 405.377C658.229 406.505 659.2 407.941 659.77 409.55C659.944 410.285 660.286 410.97 660.77 411.55C661.503 412.107 662.41 412.386 663.33 412.34C665.84 412.49 668.03 414.47 670.33 413.4C672.91 412.188 675.796 411.783 678.61 412.24C679.189 412.374 679.786 412.425 680.38 412.39C680.888 412.308 681.379 412.139 681.83 411.89C682.855 411.295 683.964 410.857 685.12 410.59C685.701 410.47 686.305 410.52 686.858 410.734C687.412 410.949 687.892 411.319 688.24 411.8C689.04 410.93 689.52 409.8 690.24 408.88C690.559 408.387 691.008 407.991 691.537 407.735C692.066 407.48 692.655 407.374 693.24 407.43C692.48 406.76 693.24 405.43 694.24 405.17C695.241 405.094 696.247 405.131 697.24 405.28C699.87 405.28 701.88 402.88 704.43 402.28C706.78 401.7 709.9 402.39 711.11 400.28C711.53 399.54 711.62 398.54 712.34 398.08C712.833 397.84 713.395 397.776 713.93 397.9C715.594 398.121 717.212 398.611 718.72 399.35C721.18 408.97 719.89 418.96 718.01 428.71C717.349 433.128 715.55 437.298 712.79 440.81Z" fill="#3F3D56"/>
<path opacity="0.1" d="M712.871 475.28L725.101 499.94C723.781 497.66 720.991 496.77 718.791 495.31C716.008 493.289 713.913 490.461 712.791 487.21C711.68 483.965 710.905 480.614 710.481 477.21C710.231 475.64 709.721 473.45 710.481 472.03C711.841 472.33 712.291 474.12 712.871 475.28Z" fill="black"/>
<path opacity="0.1" d="M748.059 496.22C750.819 498.95 754.189 500.96 757.229 503.38C764.319 509.03 769.379 516.77 774.319 524.38C775.706 526.369 776.876 528.501 777.809 530.74C777.229 531.24 776.359 530.74 775.809 530.22L766.209 521.78C765.03 520.817 763.957 519.731 763.009 518.54C761.339 516.29 760.599 513.54 759.089 511.14C757.442 508.869 755.475 506.848 753.249 505.14C751.049 503.25 740.909 494.68 743.379 491.35C745.139 492.3 746.599 494.77 748.059 496.22Z" fill="black"/>
<path d="M727.071 389.33C730.071 387.43 733.711 386.63 737.241 385.98C739.358 385.498 741.536 385.343 743.701 385.52C745.701 385.77 747.621 386.52 749.631 386.65C752.461 386.81 755.171 385.65 757.891 384.92C760.611 384.19 763.771 383.92 766.071 385.53C766.556 386.017 767.176 386.347 767.851 386.48C768.547 386.392 769.194 386.075 769.691 385.58C771.617 384.209 773.95 383.531 776.311 383.656C778.672 383.781 780.921 384.703 782.691 386.27C787.901 391.15 787.311 400.69 793.411 404.39C795.101 405.39 797.251 405.95 798.231 407.66C798.467 408.204 798.745 408.728 799.061 409.23C799.473 409.665 799.975 410.006 800.531 410.23C802.289 411.025 803.964 411.994 805.531 413.12C806.315 413.694 806.975 414.42 807.471 415.255C807.968 416.09 808.291 417.017 808.421 417.98C808.444 419.391 808.139 420.787 807.531 422.06C804.544 429.383 799.364 435.601 792.701 439.86C786.039 444.12 778.22 446.213 770.321 445.85C768.918 445.926 767.534 445.496 766.421 444.64C765.833 443.978 765.369 443.216 765.051 442.39C762.181 436.39 756.801 431.93 753.371 426.21C751.371 422.8 750.031 418.99 747.901 415.64C744.691 410.55 739.791 406.79 735.001 403.14C732.301 401.08 729.291 398.92 725.901 399.07C722.901 399.2 720.681 399.36 721.791 395.65C722.739 392.98 724.612 390.738 727.071 389.33Z" fill="#3F3D56"/>
<path opacity="0.05" d="M727.071 389.33C730.071 387.43 733.711 386.63 737.241 385.98C739.358 385.498 741.536 385.343 743.701 385.52C745.701 385.77 747.621 386.52 749.631 386.65C752.461 386.81 755.171 385.65 757.891 384.92C760.611 384.19 763.771 383.92 766.071 385.53C766.556 386.017 767.176 386.347 767.851 386.48C768.547 386.392 769.194 386.075 769.691 385.58C771.617 384.209 773.95 383.531 776.311 383.656C778.672 383.781 780.921 384.703 782.691 386.27C787.901 391.15 787.311 400.69 793.411 404.39C795.101 405.39 797.251 405.95 798.231 407.66C798.467 408.204 798.745 408.728 799.061 409.23C799.473 409.665 799.975 410.006 800.531 410.23C802.289 411.025 803.964 411.994 805.531 413.12C806.315 413.694 806.975 414.42 807.471 415.255C807.968 416.09 808.291 417.017 808.421 417.98C808.444 419.391 808.139 420.787 807.531 422.06C804.544 429.383 799.364 435.601 792.701 439.86C786.039 444.12 778.22 446.213 770.321 445.85C768.918 445.926 767.534 445.496 766.421 444.64C765.833 443.978 765.369 443.216 765.051 442.39C762.181 436.39 756.801 431.93 753.371 426.21C751.371 422.8 750.031 418.99 747.901 415.64C744.691 410.55 739.791 406.79 735.001 403.14C732.301 401.08 729.291 398.92 725.901 399.07C722.901 399.2 720.681 399.36 721.791 395.65C722.739 392.98 724.612 390.738 727.071 389.33Z" fill="black"/>
<path d="M712.291 800.94C714.351 802.86 717.181 803.7 719.931 804.3C726.203 805.516 732.551 806.298 738.931 806.64L745.141 807.12C751.141 807.58 757.261 808.04 763.341 808.07C770.844 808.094 778.334 807.445 785.721 806.13C786.061 806.119 786.395 806.036 786.702 805.888C787.008 805.74 787.281 805.53 787.501 805.27C787.727 804.837 787.821 804.346 787.771 803.86C787.633 796.304 786.704 788.783 785.001 781.42C784.301 778.42 778.871 785.18 778.621 785.42C777.121 787.13 775.981 787.92 773.691 788.04C767.441 788.38 760.451 784.58 755.481 781.2C754.42 780.408 753.292 779.708 752.111 779.11C751.241 778.725 750.323 778.462 749.381 778.33C746.166 778.038 742.936 778.695 740.091 780.22C736.351 782.07 733.091 784.73 729.391 786.63C726.385 788.161 723.143 789.175 719.801 789.63C716.421 790.09 712.381 790.32 710.641 793.25C709.211 795.75 710.241 799.03 712.291 800.94Z" fill="#3F3D56"/>
<path d="M712.29 802.06C714.35 803.98 717.18 804.82 719.93 805.41C726.201 806.634 732.55 807.419 738.93 807.76L745.14 808.24C751.14 808.7 757.26 809.16 763.34 809.19C770.843 809.214 778.333 808.565 785.72 807.25C786.06 807.239 786.394 807.156 786.701 807.008C787.007 806.86 787.28 806.65 787.5 806.39C788.083 805.618 788.551 804.766 788.89 803.86C788.76 796.3 786.71 788.76 785.01 781.39C784.31 778.39 778.88 785.15 778.63 785.39C777.13 787.1 775.99 787.89 773.7 788.01C767.45 788.35 760.46 784.55 755.49 781.17C754.429 780.378 753.301 779.678 752.12 779.08C751.25 778.695 750.332 778.432 749.39 778.3C750.19 782.8 756.64 788.23 759.97 789.88C766.7 793.22 774.7 791.56 782.21 791.95C782.758 791.931 783.301 792.062 783.78 792.33C784.68 792.93 784.78 794.2 784.71 795.28C784.65 797.07 784.42 799.18 782.86 800.09C782.083 800.46 781.229 800.638 780.37 800.61C761.863 801.404 743.322 800.736 724.92 798.61C721.835 798.408 718.8 797.733 715.92 796.61C714.033 795.721 712.271 794.588 710.68 793.24C708.27 795.19 710.24 800.15 712.29 802.06Z" fill="#E8EAF2"/>
<path d="M727.759 349.66C727.869 352.59 725.859 358.29 731.349 356.66C734.629 355.71 735.549 351.84 739.699 352.66C743.849 353.48 744.809 358.66 746.219 361.99C747.367 364.652 749.144 366.995 751.398 368.817C753.652 370.639 756.316 371.886 759.159 372.45C760.33 372.725 761.548 372.725 762.719 372.45C765.399 371.68 766.929 368.92 768.019 366.36C768.971 364.196 769.757 361.963 770.369 359.68C770.796 358.071 771.08 356.428 771.219 354.77C771.304 353.642 771.304 352.508 771.219 351.38C770.719 344.7 766.919 338.61 762.049 334.01C757.179 329.41 751.279 326.08 745.439 322.8C743.536 321.61 741.476 320.691 739.319 320.07C737.191 319.635 735.006 319.544 732.849 319.8C730.009 319.922 727.217 320.577 724.619 321.73C723.556 322.244 722.577 322.918 721.719 323.73C720.5 324.859 719.629 326.313 719.209 327.92C718.159 332.23 720.909 336.12 723.139 339.53C725.149 342.67 727.609 345.88 727.759 349.66Z" fill="#3F3D56"/>
<path opacity="0.1" d="M635.35 412.69C636.52 409.69 641.45 401.55 640.03 398.69C638.549 400.792 637.289 403.04 636.27 405.4C635.34 407.73 636.1 410.8 635.35 412.69Z" fill="black"/>
<path opacity="0.1" d="M723 339.64C720.76 336.23 718 332.34 719.06 328.03C719.575 326.13 720.699 324.45 722.26 323.25C721.897 323.875 721.624 324.548 721.45 325.25C720.39 329.57 723.15 333.45 725.38 336.86C727.38 339.86 729.83 343.11 729.98 346.86C730.09 349.8 728.08 355.5 733.58 353.86C736.85 352.91 737.77 349.03 741.93 349.86C746.09 350.69 747.03 355.86 748.44 359.19C749.588 361.85 751.366 364.192 753.62 366.012C755.874 367.833 758.538 369.078 761.38 369.64C762.551 369.915 763.769 369.915 764.94 369.64C765.544 369.469 766.113 369.191 766.62 368.82C765.78 370.495 764.325 371.781 762.56 372.41C761.389 372.685 760.171 372.685 759 372.41C756.156 371.846 753.491 370.599 751.235 368.777C748.979 366.955 747.2 364.612 746.05 361.95C744.65 358.6 743.73 353.5 739.54 352.62C735.35 351.74 734.46 355.62 731.19 356.62C725.69 358.21 727.7 352.51 727.59 349.62C727.49 345.88 725 342.67 723 339.64Z" fill="black"/>
<path opacity="0.1" d="M721.821 333.8C722.337 334.635 722.901 335.44 723.511 336.21C724.672 337.665 725.971 339.005 727.391 340.21C728.231 340.94 729.101 341.62 730.011 342.27C731.697 343.452 733.469 344.509 735.311 345.43C740.681 348.14 746.501 349.84 752.311 351.51L763.651 354.81C765.041 355.81 767.591 357.76 770.401 359.73C770.828 358.122 771.112 356.479 771.251 354.82C771.336 353.692 771.336 352.558 771.251 351.43C770.751 344.75 766.951 338.66 762.081 334.06C757.211 329.46 751.311 326.13 745.471 322.85C743.567 321.66 741.508 320.741 739.351 320.12C737.222 319.685 735.038 319.594 732.881 319.85C730.041 319.972 727.249 320.627 724.651 321.78C723.587 322.294 722.609 322.969 721.751 323.78C721.113 324.723 720.624 325.758 720.301 326.85C719.571 329.24 720.551 331.74 721.821 333.8Z" fill="black"/>
<path d="M721.82 333.04C722.336 333.872 722.901 334.674 723.51 335.44C724.666 336.9 725.966 338.24 727.39 339.44C728.221 340.181 729.093 340.875 730 341.52C731.689 342.702 733.46 343.761 735.3 344.69C740.67 347.39 746.49 349.09 752.3 350.77L763.64 354.06C767.64 357.06 780.84 366.87 783.06 365.64C785.69 364.2 771.31 354.02 771.31 354.02L770.65 354.52C772.76 353.2 773.86 350.13 774.33 347.52C775.17 342.77 775.57 337.84 774.45 333.14C773.33 328.44 770.5 323.99 766.2 321.79C764.3 320.79 761.99 320.15 760.61 318.64C760.402 318.419 760.22 318.174 760.07 317.91C759.985 317.787 759.912 317.656 759.85 317.52C759.701 317.106 759.499 316.713 759.25 316.35C758.46 315.44 757.03 315.71 755.84 315.86C755.71 315.86 755.59 315.86 755.46 315.86C755.244 315.875 755.026 315.875 754.81 315.86C750.55 315.96 746.42 313.59 742.11 313.59C737.38 313.59 733.36 316.32 729.2 318.18C728.36 318.56 727.56 318.91 726.81 319.26C723.81 320.66 721.55 322.15 720.31 326.13C719.57 328.47 720.55 330.97 721.82 333.04Z" fill="#80CBC4"/>
<path opacity="0.1" d="M754.789 315.88C754.619 316.186 754.53 316.53 754.529 316.88C754.529 317.171 754.592 317.459 754.715 317.723C754.838 317.988 755.017 318.222 755.239 318.41C755.767 318.78 756.386 318.998 757.029 319.04C757.494 319.102 757.961 319.139 758.429 319.15C759.059 319.203 759.692 319.097 760.269 318.84C760.382 318.779 760.489 318.709 760.589 318.63C760.381 318.409 760.2 318.164 760.049 317.9C759.939 317.98 759.829 317.96 759.409 317.9C758.631 317.855 757.859 317.725 757.109 317.51C756.799 317.423 756.508 317.281 756.249 317.09C755.861 316.767 755.579 316.335 755.439 315.85L754.789 315.88Z" fill="black"/>
<path opacity="0.1" d="M771 353.91C770.388 354.284 769.708 354.532 769 354.64C768.502 354.769 767.993 354.85 767.48 354.88C766.179 354.839 764.906 354.496 763.76 353.88" fill="black"/>
<path opacity="0.1" d="M253.009 340.99H201.279V366.37H253.009V340.99Z" fill="#3F3D56"/>
<path opacity="0.1" d="M253.009 412.24H201.279V437.62H253.009V412.24Z" fill="#3F3D56"/>
<path opacity="0.1" d="M253.009 483.49H201.279V508.87H253.009V483.49Z" fill="#3F3D56"/>
<path opacity="0.1" d="M253.009 554.74H201.279V580.12H253.009V554.74Z" fill="#3F3D56"/>
<path d="M358.42 404.64C359.86 403.72 359.29 401.26 357.8 400.42C356.31 399.58 354.47 399.84 352.8 400.18C352.879 399.754 352.817 399.314 352.624 398.927C352.431 398.539 352.117 398.224 351.73 398.03V397.66C352.73 396.72 352.33 394.72 351.15 393.87C349.97 393.02 348.15 392.97 346.49 393.05C346.599 392.076 346.474 391.09 346.126 390.174C345.778 389.257 345.218 388.437 344.49 387.78C344.208 387.477 343.823 387.292 343.41 387.26C342.48 387.26 342.17 388.51 342.1 389.44C341.905 391.873 341.504 394.285 340.9 396.65L310.59 447.42C307.21 452.3 317.71 437.7 314.33 442.58C312.607 445.265 310.595 447.753 308.33 450C306.299 451.807 304.027 453.325 301.58 454.51C299.946 454.562 298.336 454.108 296.97 453.21C295.258 452.006 293.76 450.522 292.54 448.82C289.898 445.458 287.508 441.905 285.39 438.19C284.649 437.016 284.096 435.734 283.75 434.39C283.29 432.29 283.75 430 282.91 428.03C282.564 427.289 282.128 426.594 281.61 425.96L279.52 423.17C279.515 423.13 279.515 423.09 279.52 423.05C279.28 418.92 275.94 415.75 272.82 413.05C270.16 410.73 267.28 408.31 263.82 407.86C261.94 407.62 260.02 407.98 258.14 407.74C256.61 407.55 255.14 406.97 253.64 406.74C252.175 406.545 250.692 406.515 249.22 406.65L248.59 406.08C251.829 404.708 254.581 402.395 256.49 399.44C257.94 397.1 258.72 394.44 260.06 392.01C261.69 389.08 264.06 386.66 265.95 383.85C270.31 377.18 271.11 368.6 269.35 360.85C267.59 353.1 263.44 346.03 258.57 339.73C249.2 327.61 233.48 323.11 218.68 325.49C217.68 325.64 216.68 325.83 215.73 326.04C213.241 326.565 210.812 327.342 208.48 328.36C205.323 329.644 202.584 331.78 200.57 334.53C200.019 335.331 199.556 336.189 199.19 337.09C198.914 337.772 198.69 338.474 198.52 339.19C198.064 341.359 197.943 343.585 198.16 345.79C198.22 346.54 198.3 347.3 198.39 348.05C198.39 348.43 198.48 348.8 198.53 349.18C198.63 349.93 198.74 350.69 198.84 351.44C199 352.57 199.15 353.7 199.26 354.81C199.345 355.6 199.385 356.395 199.38 357.19C199.38 357.39 199.38 357.58 199.38 357.78C199.349 358.37 199.262 358.956 199.12 359.53C199.04 359.842 198.943 360.149 198.83 360.45C198.478 361.351 198.014 362.204 197.45 362.99C196.685 364.036 195.86 365.038 194.98 365.99L194.13 366.99L193.29 367.99C192.173 369.29 191.154 370.67 190.24 372.12C189.788 372.846 189.384 373.601 189.03 374.38C188.768 374.973 188.541 375.581 188.35 376.2C188.091 377.024 187.913 377.871 187.82 378.73C187.82 378.95 187.77 379.16 187.76 379.38C187.735 379.806 187.735 380.234 187.76 380.66C187.777 381.083 187.823 381.504 187.9 381.92C188.039 382.759 188.288 383.576 188.64 384.35C188.64 384.46 188.75 384.57 188.8 384.67C188.85 384.77 188.91 384.88 188.96 384.99C189.01 385.1 189.17 385.42 189.27 385.63C189.414 385.95 189.522 386.286 189.59 386.63C189.59 386.74 189.59 386.86 189.59 386.98C189.6 387.103 189.6 387.227 189.59 387.35C189.436 388.33 188.922 389.217 188.15 389.84C187.96 390.02 187.75 390.19 187.55 390.36L187.24 390.61L186.61 391.11L186 391.6C185.469 392.047 184.977 392.538 184.53 393.07C179.034 392.77 173.524 393.31 168.19 394.67C166.29 395.285 164.315 395.641 162.32 395.73C161.841 395.775 161.359 395.7 160.916 395.514C160.473 395.327 160.083 395.034 159.78 394.66C159.453 393.929 159.362 393.115 159.52 392.33C159.789 389.061 159.253 385.775 157.96 382.76C157.645 381.876 157.103 381.09 156.39 380.48C156.028 380.188 155.582 380.018 155.118 379.992C154.653 379.967 154.192 380.089 153.8 380.34C155.449 385.683 155.212 391.43 153.13 396.62C152.054 399.064 150.797 401.423 149.37 403.68C147.14 407.47 145.89 411.81 143.91 415.74C146.13 423.25 145.64 431.27 146.8 439.01C147.88 446.23 150.4 453.13 152.93 460.01C154.84 465.18 156.93 470.56 161.05 474.2C162.381 475.533 164.168 476.312 166.05 476.38C167.46 476.21 168.808 475.702 169.98 474.9C171.188 474.239 172.302 473.419 173.29 472.46C173.67 472.064 174.005 471.628 174.29 471.16C174.406 471.817 174.654 472.443 175.02 473C177.4 467.87 180.02 462.85 182.82 457.94C183.657 457.494 184.441 456.958 185.16 456.34C185.21 456.51 185.25 456.69 185.29 456.87C185.17 457.34 185.05 457.82 184.92 458.29C184.79 458.76 184.65 459.19 184.51 459.63C184.37 460.07 184.31 460.29 184.2 460.63C184.09 460.97 183.94 461.41 183.8 461.8L183.32 463.07C183.2 463.37 183.09 463.67 182.96 463.97C182.66 464.7 182.35 465.43 182.01 466.15C182.279 466.282 182.556 466.396 182.84 466.49L183.03 466.55C183.283 466.627 183.54 466.691 183.8 466.74H184.08L184.66 466.8H184.88C184.98 466.8 185.08 466.8 185.18 466.8H185.57C186.268 466.759 186.959 466.638 187.63 466.44C187.76 466.96 187.88 467.49 188.01 468.01C188.983 471.51 189.613 475.097 189.89 478.72C190.07 482.82 189.36 486.98 190.14 491.02C190.55 493.11 191.36 495.12 191.65 497.24C191.847 499.238 191.81 501.251 191.54 503.24C191.087 508.033 190.633 512.827 190.18 517.62C190.138 519.379 189.718 521.108 188.95 522.69C188.27 523.86 187.18 525.2 187.86 526.36C188.986 526.057 190.132 525.836 191.29 525.7C190.87 527.23 190.49 528.76 190.13 530.3C189.778 531.449 189.685 532.661 189.86 533.85C190.1 534.96 190.79 535.96 190.86 537.1C191.03 538.85 189.86 540.4 189.14 542.03C187.42 546.19 189.25 550.88 191.07 555.03L196.45 567.24C197.917 570.573 199.39 573.907 200.87 577.24C202.18 580.24 203.5 583.24 204.76 586.24C210.522 599.931 215.229 614.042 218.84 628.45C218.955 629.102 219.2 629.724 219.56 630.28C220.31 631.28 221.66 631.57 222.76 632.18C226.08 634 226.46 639.45 223.42 641.71C224.05 649.05 218.55 656.14 215.72 662.94C209.2 678.57 210.38 696.18 208.14 712.94L210.67 711.46C210.969 711.599 211.245 711.781 211.49 712C211.43 712.31 211.37 712.62 211.29 712.94C210.95 714.366 210.4 715.734 209.66 717C208.19 719.54 205.94 721.79 205.6 724.7C205.39 726.45 205.93 728.21 205.92 729.98C205.92 730.14 205.92 730.3 205.92 730.47C205.7 730.25 205.36 730.27 204.84 730.67C204.051 731.509 203.501 732.545 203.25 733.67C202.81 734.92 202.46 736.2 202.11 737.48L200.88 742C200.213 744.713 199.33 747.368 198.24 749.94C197.303 751.668 196.52 753.475 195.9 755.34C195.548 756.857 195.41 758.415 195.49 759.97C195.471 761.455 195.687 762.933 196.13 764.35C196.715 765.751 197.585 767.014 198.685 768.059C199.785 769.104 201.091 769.908 202.52 770.42C205.379 771.422 208.373 771.985 211.4 772.09C212.175 772.19 212.961 772.17 213.73 772.03C214.559 771.793 215.331 771.392 216 770.85C220.11 767.85 222.24 762.25 222.61 757.15C222.507 756.1 222.319 755.06 222.05 754.04C222.3 748.49 221.49 742.91 221.92 737.38C222 738.01 222.1 738.63 222.19 739.26C222.523 741.327 222.857 743.397 223.19 745.47C223.129 745.25 223.012 745.05 222.85 744.89C222.131 747.195 222.008 749.644 222.49 752.01C222.957 754.363 223.626 756.672 224.49 758.91L225.82 762.62C226.141 763.737 226.678 764.78 227.4 765.69C228.57 766.97 230.35 767.44 232.03 767.86C235.679 768.918 239.437 769.558 243.23 769.77C243.739 769.83 244.255 769.736 244.71 769.5C244.94 769.325 245.16 769.138 245.37 768.94C245.708 768.694 246.07 768.483 246.45 768.31C248.079 767.455 249.309 765.999 249.88 764.25C250.155 763.379 250.241 762.459 250.132 761.552C250.023 760.645 249.723 759.772 249.25 758.99C248.805 758.328 248.296 757.712 247.73 757.15L241.06 750.08C240.043 748.86 238.951 747.704 237.79 746.62C237.654 746.478 237.486 746.372 237.299 746.309C237.113 746.246 236.914 746.229 236.72 746.26C234.91 741.74 235.14 736.44 235.46 731.48C235.55 730 236.36 726.92 236.69 724.4C237.975 723.981 239.174 723.334 240.23 722.49C241.22 721.748 241.925 720.689 242.23 719.49C245.59 702.29 251.04 685.62 256.13 668.86C256.63 667.21 257.13 665.55 257.62 663.86L258.24 661.74C258.4 661.16 258.58 660.58 258.74 660C259.02 659 259.29 658.05 259.55 657.07C259.63 656.81 259.7 656.54 259.77 656.28C259.775 656.227 259.775 656.173 259.77 656.12C260.1 654.92 260.41 653.72 260.72 652.52L261.08 651.14C261.47 649.61 261.84 648.07 262.21 646.54C262.26 646.33 262.31 646.11 262.35 645.89C262.475 645.348 262.437 644.781 262.24 644.26C262.135 644.058 262.003 643.869 261.85 643.7C261.75 643.58 261.63 643.45 261.51 643.33L261.14 642.92C260.831 642.543 260.6 642.107 260.46 641.64C260.46 641.17 260.46 640.7 260.46 640.24C260.46 639.78 260.4 639.24 260.37 638.75C260.474 638.094 260.621 637.446 260.81 636.81C260.92 636.43 261.05 636.05 261.17 635.67C261.29 635.29 261.46 634.67 261.62 634.25C262.207 633.586 262.525 632.726 262.51 631.84C263.11 630.33 263.77 628.84 264.51 627.4C265.407 625.929 266.015 624.3 266.3 622.6C266.29 621.062 266.095 619.531 265.72 618.04C264.72 611.7 267.66 605.51 269.84 599.48C271.437 595.052 272.651 590.495 273.47 585.86C274.11 582.29 274.55 578.56 276.47 575.47C277.096 574.607 277.633 573.682 278.07 572.71C278.364 571.686 278.509 570.625 278.5 569.56C278.735 565.248 279.776 561.018 281.57 557.09C281.976 556.336 282.247 555.517 282.37 554.67C282.375 554.613 282.375 554.557 282.37 554.5V554.26L282.87 554.19C283.72 548.81 284.57 542.81 283.99 537.4C283.224 531.124 280.169 525.352 275.41 521.19H275.51C277.19 520.34 277.94 518.31 277.96 516.43C277.968 515.038 277.661 513.663 277.064 512.406C276.467 511.149 275.594 510.043 274.51 509.17C274.029 508.87 273.628 508.458 273.34 507.97C273.178 507.46 273.13 506.921 273.2 506.39C273.201 504.791 272.726 503.228 271.835 501.899C270.945 500.571 269.68 499.537 268.2 498.93C267.894 498.846 267.615 498.684 267.39 498.46C267.15 498.028 267.079 497.522 267.19 497.04C267.285 495.449 266.943 493.863 266.201 492.453C265.459 491.042 264.345 489.862 262.98 489.04C263.533 486.973 263.595 484.805 263.16 482.71C262.56 480.71 260.64 478.84 258.53 479.11C260.25 474.42 257.81 469.2 258.46 464.25C258.74 462.13 259.59 460.09 259.7 457.95C259.8 456.01 259.31 453.95 260.26 452.21C261.21 450.47 263.45 449.21 262.87 447.37C262.62 446.57 261.87 446.03 261.55 445.25C261.23 444.47 262.55 443.25 263.28 443.73C263.61 443.48 263.94 443.21 264.28 442.94C264.387 443.933 264.584 444.913 264.87 445.87C265.34 447.47 266.08 448.98 266.57 450.57C267.33 453 267.57 455.63 268.79 457.86C270.79 461.42 274.86 463.18 277.66 466.14C279.3 467.87 280.47 470 282.16 471.69C283.445 472.885 284.853 473.941 286.36 474.84L295.36 480.68C296.293 481.361 297.334 481.878 298.44 482.21C299.142 482.344 299.864 482.334 300.562 482.18C301.26 482.026 301.919 481.731 302.499 481.314C303.08 480.896 303.569 480.365 303.937 479.752C304.305 479.14 304.544 478.458 304.64 477.75C303.807 477.465 303.049 476.997 302.42 476.38C302.55 476.38 302.68 476.38 302.8 476.32C304.947 475.759 306.933 474.705 308.6 473.24C315.02 468.13 319.6 461.15 324.14 454.29C328.86 447.1 351.6 428.07 351.6 428.07V420.35C354.489 418.675 357.053 416.493 359.17 413.91C360.32 412.516 360.987 410.786 361.07 408.98C361.141 408.07 360.923 407.16 360.447 406.381C359.972 405.602 359.262 404.993 358.42 404.64ZM169.36 423.13C168.92 425.93 168.383 428.717 167.75 431.49C167.045 434.688 166.146 437.84 165.06 440.93C164.94 441.25 164.82 441.58 164.71 441.93C164.38 441.33 164.06 440.73 163.77 440.12C163.03 438.59 162.44 436.99 161.85 435.4L158.09 425.25C157.6 423.94 157.09 422.41 157.84 421.2C158.378 420.459 159.128 419.898 159.99 419.59C162.638 418.379 165.402 417.441 168.24 416.79C169.139 416.607 170.027 416.374 170.9 416.09C170.174 418.385 169.659 420.742 169.36 423.13ZM173.52 410.47C173.397 410.245 173.332 409.992 173.332 409.735C173.332 409.478 173.397 409.225 173.52 409C173.808 408.713 174.147 408.482 174.52 408.32C174.619 408.262 174.713 408.195 174.8 408.12L173.52 410.47ZM181.32 399.47C180.209 400.383 179.203 401.416 178.32 402.55C177.361 403.817 176.498 405.154 175.74 406.55C175.864 406.007 175.828 405.441 175.639 404.918C175.449 404.395 175.113 403.937 174.67 403.6C174.316 403.413 173.981 403.192 173.67 402.94C173.344 402.505 173.204 401.958 173.281 401.42C173.358 400.882 173.645 400.396 174.08 400.07C174.973 399.474 176.009 399.129 177.08 399.07L181.57 398.41C181.51 398.7 181.42 399.07 181.32 399.42V399.47ZM223.46 726.06C223.537 724.721 223.45 723.378 223.2 722.06C223.76 722.06 224.31 722.06 224.86 722.01L223.46 726.06Z" fill="url(#paint1_linear_368_1993)"/>
<path d="M218.879 328.35C211.069 329.6 202.379 332.61 199.389 339.93C197.139 345.46 198.879 351.69 199.459 357.64C199.678 359.208 199.621 360.802 199.289 362.35C198.649 364.86 196.869 366.89 195.159 368.83C192.772 371.295 190.767 374.102 189.209 377.16C187.799 380.29 187.359 384.02 188.809 387.16C189.308 387.961 189.647 388.851 189.809 389.78C189.899 391.78 187.809 393.1 186.209 394.4C180.349 399.25 180.599 408.09 180.549 415.71C180.441 431.27 176.965 446.622 170.359 460.71C172.829 461.966 175.621 462.447 178.368 462.09C181.116 461.733 183.692 460.555 185.759 458.71C184.945 462.182 183.772 465.56 182.259 468.79C187.259 471.19 193.199 467.25 195.689 462.33C198.179 457.41 198.469 451.69 200.239 446.47C202.009 441.25 205.149 436.71 206.489 431.47C206.939 429.73 207.209 427.88 208.269 426.47C209.163 425.425 210.216 424.527 211.389 423.81C216.531 420.08 220.378 414.835 222.389 408.81C228.469 410.15 234.659 411.5 240.849 410.94C247.039 410.38 253.359 407.57 256.629 402.28C258.079 399.94 258.859 397.28 260.199 394.86C261.829 391.93 264.199 389.51 266.089 386.71C270.439 380.05 271.249 371.48 269.479 363.71C267.709 355.94 263.579 348.91 258.709 342.61C249.379 330.47 233.669 325.97 218.879 328.35Z" fill="#303D5C"/>
<path d="M169.589 425.96C169.149 428.76 168.616 431.54 167.989 434.3C167.285 437.495 166.386 440.644 165.299 443.73C164.659 445.083 164.367 446.575 164.449 448.07C164.641 448.986 164.997 449.86 165.499 450.65C169.059 456.98 173.869 463.1 174.279 470.36C174.389 472.17 174.279 474.13 175.279 475.62C178.039 469.7 181.079 463.923 184.399 458.29C187.869 452.39 191.739 446.44 192.739 439.67C193.131 436.489 193.087 433.269 192.609 430.1C192.149 426.54 191.349 422.89 189.179 420.04C186.819 416.95 180.349 412.3 176.179 413.26C171.229 414.42 170.209 421.99 169.589 425.96Z" fill="#80CBC4"/>
<path d="M295.389 460.11C300.059 458.2 304.819 456.18 308.519 452.76C310.79 450.525 312.802 448.043 314.519 445.36L325.519 429.49C328.119 425.73 330.799 421.77 331.359 417.23C337.801 410.448 341.689 401.64 342.359 392.31C342.439 391.38 342.749 390.16 343.679 390.14C344.09 390.17 344.475 390.352 344.759 390.65C345.487 391.307 346.048 392.127 346.395 393.044C346.743 393.96 346.868 394.946 346.759 395.92C348.359 395.84 350.109 395.8 351.409 396.73C352.709 397.66 353.059 399.99 351.659 400.73C352.131 400.87 352.535 401.179 352.793 401.598C353.051 402.016 353.146 402.516 353.059 403C354.739 402.66 356.579 402.39 358.059 403.23C359.539 404.07 360.119 406.53 358.679 407.45C359.516 407.774 360.233 408.348 360.73 409.094C361.228 409.841 361.483 410.723 361.459 411.62C361.376 413.423 360.709 415.149 359.559 416.54C355.349 422.19 347.899 424.48 343.019 429.54C341.41 431.324 339.967 433.252 338.709 435.3L324.549 456.84C320.049 463.69 315.429 470.67 309.009 475.77C307.345 477.233 305.363 478.287 303.219 478.85C302.146 479.116 301.023 479.1 299.957 478.804C298.892 478.508 297.922 477.941 297.139 477.16C295.719 475.55 295.519 473.24 295.369 471.1C294.999 467.51 295.629 463.76 295.389 460.11Z" fill="#EE8E9E"/>
<path d="M248 759.42C248.562 759.982 249.068 760.599 249.51 761.26C249.984 762.039 250.286 762.911 250.396 763.816C250.507 764.721 250.423 765.64 250.15 766.51C249.572 768.255 248.343 769.709 246.72 770.57C246.339 770.739 245.977 770.947 245.64 771.19C245.429 771.388 245.209 771.575 244.98 771.75C244.524 771.984 244.01 772.081 243.5 772.03C239.707 771.808 235.951 771.168 232.3 770.12C230.62 769.7 228.85 769.22 227.68 767.95C226.957 767.04 226.42 765.997 226.1 764.88L224.77 761.18C223.911 758.943 223.242 756.638 222.77 754.29C222.287 751.928 222.41 749.481 223.13 747.18C223.466 747.586 223.641 748.103 223.62 748.63C224.016 751.121 224.992 753.485 226.47 755.53C226.921 756.326 227.563 756.998 228.338 757.485C229.113 757.972 229.996 758.259 230.91 758.32C233.246 758.828 235.621 759.132 238.01 759.23C238.348 759.271 238.691 759.23 239.01 759.11C239.398 758.893 239.688 758.535 239.82 758.11C240.159 757.166 240.159 756.134 239.82 755.19C239.19 753.39 237.42 752.19 236.57 750.49C235.95 749.22 236.82 747.83 238.1 748.9C239.258 749.983 240.35 751.135 241.37 752.35L248 759.42Z" fill="#303D5C"/>
<path d="M235.701 733.78C235.321 739.78 235.051 746.17 238.321 751.18C239.491 752.98 241.061 754.49 242.401 756.18C243.164 757.02 243.671 758.061 243.861 759.18C244.061 761.37 242.001 763.24 239.861 763.64C237.721 764.04 235.501 763.38 233.411 762.71C231.437 762.213 229.579 761.337 227.941 760.13C225.101 757.73 224.351 753.73 223.781 750.06L222.451 741.53C222.052 739.485 221.891 737.401 221.971 735.32C222.243 733.022 222.804 730.767 223.641 728.61L225.831 722.2C225.985 721.577 226.336 721.019 226.831 720.61C227.339 720.337 227.919 720.229 228.491 720.3C230.591 720.41 235.861 721.17 236.881 723.39C237.721 725.33 235.851 731.48 235.701 733.78Z" fill="#EE8E9E"/>
<path opacity="0.05" d="M235.701 733.78C235.321 739.78 235.051 746.17 238.321 751.18C239.491 752.98 241.061 754.49 242.401 756.18C243.164 757.02 243.671 758.061 243.861 759.18C244.061 761.37 242.001 763.24 239.861 763.64C237.721 764.04 235.501 763.38 233.411 762.71C231.437 762.213 229.579 761.337 227.941 760.13C225.101 757.73 224.351 753.73 223.781 750.06L222.451 741.53C222.052 739.485 221.891 737.401 221.971 735.32C222.243 733.022 222.804 730.767 223.641 728.61L225.831 722.2C225.985 721.577 226.336 721.019 226.831 720.61C227.339 720.337 227.919 720.229 228.491 720.3C230.591 720.41 235.861 721.17 236.881 723.39C237.721 725.33 235.851 731.48 235.701 733.78Z" fill="black"/>
<path d="M282.61 557C282.615 557.057 282.615 557.113 282.61 557.17C282.483 558.016 282.213 558.835 281.81 559.59C280.021 563.513 278.979 567.735 278.74 572.04C278.749 573.102 278.604 574.16 278.31 575.18C277.872 576.152 277.336 577.077 276.71 577.94C274.81 581.03 274.37 584.76 273.71 588.32C272.897 592.95 271.682 597.501 270.08 601.92C267.91 607.92 264.98 614.13 265.97 620.46C266.346 621.948 266.541 623.476 266.55 625.01C266.265 626.71 265.657 628.339 264.76 629.81C264.02 631.25 263.36 632.73 262.76 634.24C262.16 635.75 261.55 637.53 261.06 639.24C260.47 641.24 260.06 643.7 261.43 645.34C261.846 645.748 262.215 646.201 262.53 646.69C262.784 647.436 262.784 648.244 262.53 648.99C261.763 652.243 260.937 655.483 260.05 658.71C259.37 661.25 258.65 663.77 257.9 666.29C252.42 684.71 246.21 702.94 242.52 721.81C241.99 724.52 238.52 726.47 235.81 727.06C234.453 727.347 233.048 727.31 231.709 726.952C230.369 726.594 229.133 725.925 228.1 725L227.57 724.47C224.74 721.47 224.33 716.75 224.57 712.53C225.57 693.12 235.3 675.35 239.95 656.48C241.628 649.658 242.633 642.688 242.95 635.67C244.04 612.23 244.47 587.47 237.85 564.96C236.47 560.28 234.85 554.96 237.31 550.79C238.88 548.13 241.78 546.57 244.64 545.43C250.49 543.142 256.739 542.045 263.019 542.205C269.299 542.364 275.483 543.777 281.21 546.36C281.218 546.831 281.202 547.301 281.16 547.77C280.905 549.951 281.155 552.161 281.89 554.23C282.293 555.103 282.537 556.041 282.61 557Z" fill="#303D5C"/>
<path d="M202.36 739.77L201.13 744.28C200.465 746.993 199.582 749.648 198.49 752.22C197.555 753.945 196.772 755.749 196.15 757.61C195.802 759.124 195.667 760.679 195.75 762.23C195.726 763.715 195.942 765.194 196.39 766.61C196.973 768.009 197.841 769.271 198.94 770.314C200.038 771.358 201.343 772.16 202.77 772.67C205.629 773.672 208.623 774.235 211.65 774.34C212.425 774.44 213.211 774.42 213.98 774.28C214.805 774.041 215.573 773.64 216.24 773.1C220.35 770.1 222.48 764.51 222.85 759.42C222.74 758.235 222.505 757.066 222.15 755.93C221.83 755.5 218.72 757.26 220.05 758.72C222.05 760.9 216.25 759.77 213.32 759.59C212.04 759.47 210.77 759.26 209.52 758.96L204.77 757.96C203.22 757.62 201.43 757.09 200.88 755.6C200.33 754.11 201.53 752.34 202.47 750.9C204.95 747.07 205.58 742.37 206.16 737.84C206.27 736.95 207.38 731.19 205.09 732.98C204.301 733.819 203.751 734.855 203.5 735.98C203.06 737.22 202.71 738.5 202.36 739.77Z" fill="#303D5C"/>
<path opacity="0.05" d="M261.44 645.31C260.09 643.67 260.49 641.25 261.07 639.21C261.29 638.45 261.53 637.69 261.78 636.94L243.15 630.64C243.08 632.31 243.01 633.98 242.93 635.64C242.612 642.661 241.607 649.635 239.93 656.46C235.28 675.32 225.5 693.09 224.55 712.46C224.33 716.93 224.81 721.92 228.11 724.93C229.142 725.856 230.378 726.525 231.718 726.883C233.058 727.241 234.463 727.278 235.82 726.99C238.52 726.4 242 724.45 242.53 721.73C246.22 702.87 252.42 684.64 257.91 666.21C259.623 660.49 261.166 654.723 262.54 648.91C262.794 648.168 262.794 647.362 262.54 646.62C262.228 646.14 261.858 645.7 261.44 645.31Z" fill="black"/>
<path d="M209.94 719.32C208.47 721.85 206.22 724.1 205.88 727.01C205.67 728.76 206.21 730.52 206.2 732.28C206.133 733.741 205.874 735.187 205.43 736.58C203.617 743.133 201.527 749.597 199.16 755.97C198.774 756.79 198.605 757.696 198.67 758.6C198.91 760.1 200.35 761.08 201.75 761.67C206.18 763.57 211.18 763.44 216 763.24C217.394 763.31 218.78 762.988 220 762.31C221.72 761.13 222.15 758.79 222.26 756.7C222.59 750.7 221.57 744.58 222.26 738.56C222.5 736.37 222.96 734.21 223.31 732.03C223.78 729.03 224.02 725.83 223.03 722.93C222.202 720.853 221.051 718.919 219.62 717.2C218.351 715.343 216.743 713.741 214.88 712.48C214.32 712.14 212.7 711.11 212.13 711.76C211.84 712.09 211.97 712.97 211.92 713.38C211.85 714.013 211.739 714.641 211.59 715.26C211.237 716.685 210.681 718.053 209.94 719.32Z" fill="#EE8E9E"/>
<path opacity="0.05" d="M245.76 564.56C244.89 565.74 245.07 567.38 245.42 568.8C246.04 571.38 247.07 573.8 247.91 576.36C249.285 580.863 250.354 585.453 251.11 590.1C251.9 594.3 253.55 598.98 252.87 603.2C257.954 612.876 261.304 623.368 262.77 634.2C263.15 636.98 256.97 640.58 257.09 643.39C257.32 648.96 261.77 649.39 258.48 653.87C258.32 654.09 259.71 659.07 259.48 659.29C258.14 660.9 256.48 662.18 255.01 663.69C253.16 665.79 251.578 668.111 250.3 670.6C241.8 685.93 229.53 703.33 233.3 720.45C233.383 721.068 233.272 721.697 232.982 722.249C232.691 722.801 232.236 723.249 231.68 723.53C230.562 724.078 229.334 724.362 228.09 724.36H227.5C224.67 721.36 224.26 716.64 224.5 712.42C225.5 693.01 235.23 675.24 239.88 656.37C241.558 649.548 242.563 642.578 242.88 635.56C243.97 612.12 244.4 587.36 237.78 564.85C236.4 560.17 234.78 554.85 237.24 550.68C238.81 548.02 241.71 546.46 244.57 545.32C250.42 543.031 256.668 541.935 262.948 542.095C269.228 542.254 275.413 543.667 281.14 546.25C281.148 546.72 281.131 547.191 281.09 547.66C280.835 549.841 281.085 552.051 281.82 554.12C282.231 555.005 282.478 555.957 282.55 556.93C282.55 556.99 282.89 553.16 282.88 553.21C275.27 554.31 267.33 559.29 259.72 560.38C255.763 560.796 251.865 561.655 248.1 562.94C247.184 563.252 246.374 563.813 245.76 564.56Z" fill="black"/>
<path d="M193.07 523C192.036 526.253 191.136 529.54 190.37 532.86C190.019 534.005 189.923 535.214 190.09 536.4C190.34 537.51 191.03 538.51 191.09 539.65C191.27 541.4 190.09 542.95 189.38 544.58C187.66 548.73 189.49 553.41 191.3 557.52L196.68 569.73L201.1 579.73C202.41 582.73 203.73 585.68 204.99 588.68C210.748 602.351 215.452 616.442 219.06 630.83C219.177 631.485 219.422 632.11 219.78 632.67C220.53 633.67 221.88 633.95 222.98 634.56C226.3 636.38 226.67 641.82 223.64 644.08C224.27 651.41 218.77 658.49 215.94 665.28C209.43 680.89 210.61 698.48 208.37 715.28L210.9 713.81C213.33 714.92 213.24 718.36 214.55 720.69C216.55 724.19 221.3 724.69 225.31 724.42C226.554 724.42 227.782 724.136 228.9 723.59C229.456 723.309 229.912 722.861 230.202 722.309C230.492 721.757 230.603 721.128 230.52 720.51C226.74 703.39 239.01 686 247.52 670.65C248.794 668.161 250.376 665.843 252.23 663.75C253.67 662.23 255.36 660.95 256.7 659.35C260.45 654.85 260.93 648.5 260.7 642.65C260.102 628.88 256.468 615.412 250.06 603.21C250.73 598.99 249.06 594.32 248.3 590.12C247.548 585.486 246.482 580.909 245.11 576.42C244.27 573.89 243.24 571.42 242.62 568.85C242.28 567.43 242.1 565.79 242.96 564.61C243.599 563.879 244.43 563.342 245.36 563.06C249.129 561.749 253.033 560.863 257 560.42L283.16 556.66C284.01 551.29 284.86 545.29 284.28 539.89C283.653 534.884 281.572 530.172 278.294 526.336C275.017 522.501 270.687 519.71 265.84 518.31C264.69 518 263.36 517.8 262.42 518.53C239.305 513.997 215.411 515.538 193.07 523Z" fill="#303D5C"/>
<path d="M216.849 381.57C217.226 384.125 216.825 386.735 215.699 389.06C214.917 390.337 213.899 391.454 212.699 392.35C210.171 394.388 207.229 395.851 204.079 396.64C202.219 397.1 200.139 397.42 198.919 398.89C197.079 401.11 198.309 404.46 199.919 406.89C202.629 411.09 206.399 414.89 211.229 416.24C215.089 417.29 219.229 416.64 223.149 417.33C226.009 417.82 228.699 419 231.519 419.68C235.533 420.597 239.713 420.498 243.678 419.391C247.644 418.284 251.271 416.204 254.229 413.34C250.039 410.12 245.689 406.7 243.519 401.88C241.973 398.421 241.683 394.53 242.699 390.88C243.699 387.3 245.969 383.82 245.269 380.18C244.569 376.54 240.969 374.02 237.409 372.79C234.2 371.798 230.901 371.128 227.559 370.79C225.709 370.54 213.999 367.95 213.269 369.23C212.859 369.95 215.269 374.23 215.589 375.17C216.319 377.23 216.744 379.387 216.849 381.57Z" fill="#EE8E9E"/>
<path d="M231.58 390.11C244.703 390.11 255.34 379.472 255.34 366.35C255.34 353.228 244.703 342.59 231.58 342.59C218.458 342.59 207.82 353.228 207.82 366.35C207.82 379.472 218.458 390.11 231.58 390.11Z" fill="#EE8E9E"/>
<path d="M219 405.62L235.11 408.34C239.06 409.139 243.08 409.544 247.11 409.55C249.314 409.33 251.535 409.33 253.74 409.55C255.26 409.8 256.74 410.38 258.25 410.55C260.13 410.79 262.04 410.43 263.92 410.67C267.42 411.12 270.3 413.54 272.92 415.85C276.03 418.57 279.38 421.74 279.61 425.85C279.664 426.319 279.598 426.793 279.42 427.23C279.118 427.727 278.712 428.154 278.23 428.48C275.23 430.91 273.61 434.54 271.5 437.74C269.325 441.037 266.623 443.953 263.5 446.37C262.8 445.92 261.5 447.11 261.77 447.88C262.04 448.65 262.84 449.2 263.09 450C263.66 451.82 261.41 453.16 260.48 454.83C259.55 456.5 260.02 458.62 259.92 460.57C259.81 462.7 258.92 464.74 258.68 466.86C258.03 471.81 260.47 477.02 258.75 481.7C260.87 481.43 262.75 483.26 263.38 485.3C263.816 487.392 263.751 489.558 263.19 491.62C264.549 492.436 265.66 493.607 266.402 495.009C267.144 496.41 267.489 497.987 267.4 499.57C267.282 500.053 267.358 500.562 267.61 500.99C267.839 501.209 268.116 501.37 268.42 501.46C269.902 502.06 271.171 503.09 272.062 504.418C272.954 505.746 273.427 507.311 273.42 508.91C273.353 509.438 273.404 509.974 273.57 510.48C273.853 510.971 274.251 511.386 274.73 511.69C275.813 512.56 276.686 513.662 277.285 514.916C277.884 516.169 278.193 517.541 278.19 518.93C278.19 520.81 277.41 522.84 275.73 523.69C272.32 525.42 268.66 526.1 264.91 526.91C261.458 527.726 257.962 528.344 254.44 528.76C251.181 529.033 247.91 529.137 244.64 529.07L223.08 528.98C217.08 528.98 210.96 528.98 204.92 528.53C199.28 528.15 193.51 527.44 188.05 528.92C187.37 527.77 188.46 526.42 189.14 525.26C189.907 523.677 190.326 521.948 190.37 520.19L191.73 505.83C191.991 503.84 192.024 501.827 191.83 499.83C191.54 497.72 190.74 495.72 190.33 493.62C189.55 489.62 190.26 485.44 190.08 481.34C189.792 477.722 189.163 474.139 188.2 470.64L184 453.1C183.32 450.27 183 447 181.9 444.29C178.606 435.85 175.163 427.48 171.57 419.18C171.437 418.817 171.385 418.429 171.418 418.044C171.451 417.659 171.567 417.285 171.76 416.95L175.32 410.57C176.273 408.757 177.363 407.018 178.58 405.37C181.581 401.568 185.833 398.954 190.58 397.99C195.346 397.055 200.288 397.786 204.58 400.06C206.24 400.95 207.78 402.06 209.47 402.89C212.32 404.33 215.82 405.84 219 405.62Z" fill="#80CBC4"/>
<path d="M276.2 421.27L281.82 428.75C282.333 429.387 282.77 430.081 283.12 430.82C283.97 432.82 283.5 435.08 283.96 437.18C284.308 438.521 284.861 439.799 285.6 440.97C287.714 444.682 290.1 448.232 292.74 451.59C293.961 453.291 295.463 454.772 297.18 455.97C298.044 456.57 299.028 456.975 300.064 457.158C301.1 457.341 302.163 457.297 303.18 457.03C302.315 457.354 301.602 457.988 301.18 458.81C299.04 463.04 298.88 468.05 299.79 472.71C300.054 474.303 300.581 475.841 301.35 477.26C302.136 478.685 303.406 479.781 304.93 480.35C304.832 481.057 304.591 481.736 304.222 482.347C303.853 482.958 303.364 483.487 302.784 483.903C302.204 484.32 301.546 484.614 300.849 484.768C300.152 484.922 299.431 484.933 298.73 484.8C297.626 484.464 296.585 483.947 295.65 483.27L286.65 477.44C285.151 476.534 283.747 475.479 282.46 474.29C280.78 472.61 279.6 470.48 277.96 468.75C275.17 465.75 271.07 464.03 269.09 460.48C267.86 458.25 267.64 455.62 266.88 453.19C266.38 451.6 265.65 450.1 265.17 448.5C263.69 443.57 264.76 438.14 267.02 433.5C269.28 428.86 272.87 425.21 276.2 421.27Z" fill="#80CBC4"/>
<path d="M255.049 352.81C252.853 349.398 250.013 346.447 246.689 344.12C242.259 340.8 237.149 338.05 231.619 337.74C229.303 337.622 226.988 338.001 224.829 338.85C224.729 332.14 223.059 327.67 218.879 328.35C211.069 329.6 202.379 332.61 199.389 339.93C197.139 345.46 198.879 351.69 199.459 357.64C199.678 359.208 199.621 360.802 199.289 362.35C198.649 364.86 196.869 366.89 195.159 368.83C192.772 371.295 190.767 374.102 189.209 377.16C187.799 380.29 187.359 384.02 188.809 387.16C189.308 387.961 189.647 388.851 189.809 389.78C189.899 391.78 187.809 393.1 186.209 394.4C180.349 399.25 180.599 408.09 180.549 415.71C180.441 431.27 176.965 446.622 170.359 460.71C172.829 461.966 175.621 462.447 178.368 462.09C181.116 461.733 183.692 460.555 185.759 458.71C184.945 462.182 183.772 465.56 182.259 468.79C187.259 471.19 193.199 467.25 195.689 462.33C198.179 457.41 198.469 451.69 200.239 446.47C202.009 441.25 205.149 436.71 206.489 431.47C206.939 429.73 207.209 427.88 208.269 426.47C209.163 425.425 210.216 424.527 211.389 423.81C216.509 420.14 208.979 392.33 210.979 386.35C213.979 387.01 219.419 372.66 222.529 358.07C224.7 358.815 227.015 359.045 229.289 358.74C230.084 358.569 230.899 358.512 231.709 358.57C232.458 358.729 233.173 359.02 233.819 359.43C236.116 360.848 238.52 362.085 241.009 363.13C246.169 365.05 251.839 364.8 257.329 364.52C258.084 360.469 257.268 356.282 255.049 352.81Z" fill="#303D5C"/>
<g opacity="0.1">
<path d="M173.151 460.71C179.752 446.62 183.228 431.269 183.341 415.71C183.341 408.09 183.131 399.25 189.001 394.4C190.561 393.1 192.691 391.81 192.591 389.78C192.434 388.849 192.094 387.959 191.591 387.16C190.131 384.06 190.591 380.33 191.981 377.16C193.542 374.105 195.547 371.298 197.931 368.83C199.641 366.89 201.431 364.83 202.071 362.35C202.397 360.801 202.455 359.208 202.241 357.64C201.661 351.64 199.911 345.46 202.171 339.93C205.061 332.84 213.291 329.8 220.901 328.48C220.256 328.268 219.568 328.223 218.901 328.35C211.091 329.6 202.401 332.61 199.411 339.93C197.161 345.46 198.901 351.69 199.481 357.64C199.7 359.208 199.642 360.802 199.311 362.35C198.671 364.86 196.891 366.89 195.181 368.83C192.794 371.295 190.788 374.103 189.231 377.16C187.821 380.29 187.381 384.02 188.831 387.16C189.329 387.961 189.669 388.851 189.831 389.78C189.921 391.78 187.831 393.1 186.231 394.4C180.371 399.25 180.621 408.09 180.571 415.71C180.463 431.27 176.987 446.622 170.381 460.71C172.704 461.911 175.33 462.402 177.931 462.12C176.261 461.964 174.638 461.486 173.151 460.71Z" fill="black"/>
<path d="M185.05 468.77C186.56 465.54 187.729 462.162 188.54 458.69C187.541 459.613 186.4 460.37 185.16 460.93C184.407 463.619 183.433 466.241 182.25 468.77C183.678 469.452 185.286 469.659 186.84 469.36C186.221 469.241 185.619 469.042 185.05 468.77Z" fill="black"/>
<path d="M227.63 338.85C229.077 338.279 230.6 337.922 232.15 337.79L231.62 337.74C230.279 337.672 228.935 337.773 227.62 338.04C227.61 338.31 227.63 338.57 227.63 338.85Z" fill="black"/>
<path d="M243.801 363.05C241.31 362.003 238.903 360.766 236.601 359.35C235.956 358.937 235.241 358.645 234.491 358.49C233.752 358.427 233.007 358.474 232.281 358.63C232.815 358.817 233.327 359.058 233.811 359.35C236.108 360.768 238.512 362.005 241.001 363.05C244.883 364.326 248.972 364.855 253.051 364.61C249.903 364.607 246.777 364.08 243.801 363.05Z" fill="black"/>
<path d="M225.322 357.99C225.272 358.2 225.222 358.41 225.182 358.63C226.35 358.805 227.536 358.835 228.712 358.72C227.557 358.607 226.42 358.362 225.322 357.99Z" fill="black"/>
</g>
<path d="M175.86 468.15C176.003 469.407 175.868 470.68 175.465 471.879C175.063 473.078 174.402 474.174 173.53 475.09C172.542 476.046 171.428 476.864 170.22 477.52C169.05 478.326 167.701 478.835 166.29 479C164.406 478.937 162.618 478.157 161.29 476.82C157.16 473.19 155.09 467.82 153.18 462.65C150.65 455.82 148.13 448.92 147.05 441.71C145.89 433.98 146.38 425.97 144.17 418.47C146.17 414.54 147.39 410.21 149.62 406.42C151.043 404.165 152.3 401.808 153.38 399.37C155.451 394.186 155.67 388.447 154 383.12C154.392 382.864 154.855 382.739 155.323 382.764C155.79 382.789 156.238 382.963 156.6 383.26C157.315 383.864 157.857 384.648 158.17 385.53C159.454 388.54 159.987 391.818 159.72 395.08C159.567 395.87 159.665 396.688 160 397.42C160.307 397.788 160.698 398.078 161.14 398.264C161.582 398.45 162.062 398.528 162.54 398.49C164.532 398.397 166.503 398.037 168.4 397.42C174.298 395.922 180.406 395.418 186.47 395.93C187.691 395.965 188.89 396.258 189.99 396.79C190.538 397.064 190.998 397.485 191.32 398.006C191.641 398.527 191.811 399.128 191.81 399.74L177.36 401.85C176.288 401.905 175.251 402.251 174.36 402.85C174.14 403.006 173.953 403.206 173.812 403.436C173.671 403.666 173.578 403.923 173.539 404.19C173.5 404.458 173.515 404.73 173.584 404.991C173.653 405.252 173.774 405.497 173.94 405.71C174.253 405.963 174.587 406.187 174.94 406.38C175.296 406.669 175.581 407.037 175.773 407.453C175.965 407.87 176.059 408.326 176.048 408.784C176.036 409.243 175.919 409.693 175.707 410.1C175.494 410.507 175.19 410.859 174.82 411.13C174.444 411.286 174.104 411.518 173.82 411.81C173.23 412.6 174.02 413.65 174.26 414.61C174.37 415.315 174.264 416.036 173.955 416.679C173.646 417.322 173.149 417.856 172.53 418.21C171.285 418.889 169.931 419.345 168.53 419.56C165.691 420.211 162.926 421.153 160.28 422.37C159.416 422.67 158.666 423.229 158.13 423.97C157.42 425.18 157.89 426.71 158.38 428.02L162.14 438.16C162.73 439.75 163.32 441.34 164.06 442.86C165.06 444.86 166.2 446.72 167.18 448.69C168.058 450.543 168.842 452.438 169.53 454.37C171.43 459.57 175.22 462.67 175.86 468.15Z" fill="#EE8E9E"/>
<path d="M342.931 399.87C342.127 400.467 341.547 401.315 341.281 402.28C341.226 402.477 341.233 402.687 341.301 402.88C341.369 403.073 341.494 403.24 341.661 403.36C341.879 403.43 342.113 403.43 342.331 403.36C343.4 403.156 344.398 402.681 345.231 401.98C344.899 402.157 344.604 402.394 344.361 402.68C344.244 402.828 344.172 403.006 344.153 403.194C344.133 403.382 344.167 403.571 344.251 403.74C344.367 403.883 344.511 404.001 344.675 404.087C344.838 404.173 345.017 404.225 345.201 404.24C346.594 404.494 348.028 404.426 349.391 404.04C348.752 404.265 348.159 404.604 347.641 405.04C347.387 405.265 347.186 405.542 347.051 405.853C346.916 406.164 346.851 406.501 346.861 406.84C346.858 406.969 346.884 407.098 346.938 407.215C346.992 407.333 347.071 407.437 347.171 407.52C347.312 407.603 347.468 407.657 347.631 407.68C348.918 407.905 350.234 407.905 351.521 407.68C351.856 407.664 352.182 407.564 352.469 407.39C352.755 407.215 352.993 406.971 353.161 406.68C353.227 406.357 353.228 406.024 353.162 405.701C353.097 405.378 352.967 405.072 352.781 404.8C352.077 403.314 351.734 401.683 351.781 400.04C351.824 399.7 351.775 399.355 351.641 399.04C351.424 398.744 351.12 398.523 350.771 398.41C349.391 397.8 347.531 396.96 345.991 397.46C344.821 398.052 343.78 398.871 342.931 399.87Z" fill="#EE8E9E"/>
<path d="M374.58 367.88L326.86 393.7C326.7 393.79 326.567 393.923 326.477 394.084C326.387 394.245 326.343 394.427 326.35 394.611C326.358 394.796 326.416 394.974 326.518 395.127C326.62 395.281 326.763 395.403 326.93 395.48L335.07 398.55C335.306 398.638 335.521 398.772 335.705 398.943C335.889 399.115 336.037 399.321 336.14 399.55L342.47 412.55C342.59 413.13 343.65 413.28 343.66 412.7L342.66 401.93C342.718 401.134 343.022 400.376 343.53 399.76L368.27 375.52C368.339 375.45 368.425 375.398 368.52 375.37C368.614 375.342 368.714 375.339 368.81 375.36C368.903 375.383 368.989 375.428 369.06 375.493C369.131 375.558 369.184 375.639 369.215 375.73C369.246 375.821 369.253 375.918 369.237 376.012C369.22 376.106 369.18 376.195 369.12 376.27L347.83 402.42C347.378 403.057 347.09 403.795 346.99 404.57L345.72 413.87C345.82 414.68 346.46 414.99 346.97 414.26L351.57 408.87C351.724 408.67 351.947 408.535 352.195 408.492C352.444 408.45 352.699 408.502 352.91 408.64L364.76 417.27C364.893 417.354 365.044 417.405 365.2 417.42C365.356 417.434 365.514 417.412 365.66 417.355C365.806 417.297 365.936 417.206 366.041 417.089C366.145 416.972 366.22 416.832 366.26 416.68L376 368.96C376.031 368.781 376.013 368.597 375.947 368.427C375.881 368.258 375.77 368.109 375.626 367.998C375.482 367.887 375.31 367.817 375.129 367.797C374.949 367.776 374.766 367.805 374.6 367.88H374.58Z" fill="#80CBC4"/>
<path d="M917.079 814.83C949.924 814.83 976.549 809.708 976.549 803.39C976.549 797.072 949.924 791.95 917.079 791.95C884.235 791.95 857.609 797.072 857.609 803.39C857.609 809.708 884.235 814.83 917.079 814.83Z" fill="#80CBC4"/>
<path d="M916.09 807.59C919.912 807.59 923.01 803.534 923.01 798.53C923.01 793.526 919.912 789.47 916.09 789.47C912.268 789.47 909.17 793.526 909.17 798.53C909.17 803.534 912.268 807.59 916.09 807.59Z" fill="#3F3D56"/>
<path d="M916.09 796.52C919.912 796.52 923.01 792.464 923.01 787.46C923.01 782.456 919.912 778.4 916.09 778.4C912.268 778.4 909.17 782.456 909.17 787.46C909.17 792.464 912.268 796.52 916.09 796.52Z" fill="#3F3D56"/>
<path d="M916.09 785.44C919.912 785.44 923.01 781.384 923.01 776.38C923.01 771.376 919.912 767.32 916.09 767.32C912.268 767.32 909.17 771.376 909.17 776.38C909.17 781.384 912.268 785.44 916.09 785.44Z" fill="#3F3D56"/>
<path d="M916.09 774.36C919.912 774.36 923.01 770.304 923.01 765.3C923.01 760.296 919.912 756.24 916.09 756.24C912.268 756.24 909.17 760.296 909.17 765.3C909.17 770.304 912.268 774.36 916.09 774.36Z" fill="#3F3D56"/>
<path d="M916.09 763.28C919.912 763.28 923.01 759.224 923.01 754.22C923.01 749.216 919.912 745.16 916.09 745.16C912.268 745.16 909.17 749.216 909.17 754.22C909.17 759.224 912.268 763.28 916.09 763.28Z" fill="#3F3D56"/>
<path d="M916.09 752.21C919.912 752.21 923.01 748.154 923.01 743.15C923.01 738.146 919.912 734.09 916.09 734.09C912.268 734.09 909.17 738.146 909.17 743.15C909.17 748.154 912.268 752.21 916.09 752.21Z" fill="#3F3D56"/>
<path d="M916.09 741.13C919.912 741.13 923.01 737.074 923.01 732.07C923.01 727.066 919.912 723.01 916.09 723.01C912.268 723.01 909.17 727.066 909.17 732.07C909.17 737.074 912.268 741.13 916.09 741.13Z" fill="#3F3D56"/>
<path d="M941.999 656.26C942.941 655.054 943.803 653.788 944.579 652.47L926.379 649.47L946.059 649.62C947.944 645.512 948.971 641.063 949.08 636.545C949.188 632.027 948.375 627.534 946.689 623.34L920.299 637.03L944.639 619.14C942.362 615.192 939.296 611.755 935.632 609.044C931.967 606.333 927.784 604.407 923.342 603.385C918.9 602.363 914.295 602.267 909.815 603.104C905.334 603.941 901.074 605.692 897.301 608.248C893.527 610.805 890.321 614.111 887.882 617.962C885.443 621.812 883.824 626.124 883.126 630.629C882.428 635.133 882.665 639.732 883.824 644.141C884.982 648.549 887.037 652.671 889.859 656.25C888.395 658.114 887.128 660.125 886.079 662.25L909.699 674.52L884.519 666.07C882.751 671.296 882.314 676.879 883.246 682.316C884.178 687.753 886.451 692.872 889.859 697.21C886.014 702.102 883.623 707.977 882.959 714.163C882.294 720.35 883.384 726.598 886.104 732.195C888.823 737.791 893.062 742.51 898.336 745.811C903.61 749.112 909.707 750.863 915.929 750.863C922.151 750.863 928.248 749.112 933.522 745.811C938.796 742.51 943.035 737.791 945.755 732.195C948.474 726.598 949.564 720.35 948.9 714.163C948.236 707.977 945.844 702.102 941.999 697.21C946.589 691.363 949.084 684.144 949.084 676.71C949.084 669.276 946.589 662.057 941.999 656.21V656.26Z" fill="#80CBC4"/>
<path opacity="0.1" d="M882.779 676.77C882.765 684.207 885.264 691.431 889.869 697.27C886.024 702.162 883.633 708.037 882.969 714.223C882.305 720.41 883.395 726.658 886.114 732.255C888.833 737.851 893.072 742.57 898.346 745.871C903.621 749.172 909.717 750.922 915.939 750.922C922.161 750.922 928.258 749.172 933.532 745.871C938.806 742.57 943.045 737.851 945.765 732.255C948.484 726.658 949.574 720.41 948.91 714.223C948.246 708.037 945.855 702.162 942.009 697.27C946.449 691.63 882.779 673.05 882.779 676.77Z" fill="black"/>
<path d="M358.05 779.3C376.8 779.3 392 776.376 392 772.77C392 769.164 376.8 766.24 358.05 766.24C339.3 766.24 324.1 769.164 324.1 772.77C324.1 776.376 339.3 779.3 358.05 779.3Z" fill="#80CBC4"/>
<path d="M358.62 775.16C360.801 775.16 362.57 772.845 362.57 769.99C362.57 767.135 360.801 764.82 358.62 764.82C356.438 764.82 354.67 767.135 354.67 769.99C354.67 772.845 356.438 775.16 358.62 775.16Z" fill="#3F3D56"/>
<path d="M358.62 768.84C360.801 768.84 362.57 766.525 362.57 763.67C362.57 760.815 360.801 758.5 358.62 758.5C356.438 758.5 354.67 760.815 354.67 763.67C354.67 766.525 356.438 768.84 358.62 768.84Z" fill="#3F3D56"/>
<path d="M358.62 762.51C360.801 762.51 362.57 760.195 362.57 757.34C362.57 754.485 360.801 752.17 358.62 752.17C356.438 752.17 354.67 754.485 354.67 757.34C354.67 760.195 356.438 762.51 358.62 762.51Z" fill="#3F3D56"/>
<path d="M358.62 756.19C360.801 756.19 362.57 753.875 362.57 751.02C362.57 748.165 360.801 745.85 358.62 745.85C356.438 745.85 354.67 748.165 354.67 751.02C354.67 753.875 356.438 756.19 358.62 756.19Z" fill="#3F3D56"/>
<path d="M358.62 749.86C360.801 749.86 362.57 747.545 362.57 744.69C362.57 741.835 360.801 739.52 358.62 739.52C356.438 739.52 354.67 741.835 354.67 744.69C354.67 747.545 356.438 749.86 358.62 749.86Z" fill="#3F3D56"/>
<path d="M358.62 743.54C360.801 743.54 362.57 741.225 362.57 738.37C362.57 735.515 360.801 733.2 358.62 733.2C356.438 733.2 354.67 735.515 354.67 738.37C354.67 741.225 356.438 743.54 358.62 743.54Z" fill="#3F3D56"/>
<path d="M358.62 737.22C360.801 737.22 362.57 734.905 362.57 732.05C362.57 729.195 360.801 726.88 358.62 726.88C356.438 726.88 354.67 729.195 354.67 732.05C354.67 734.905 356.438 737.22 358.62 737.22Z" fill="#3F3D56"/>
<path d="M343.82 688.77C343.28 688.082 342.788 687.357 342.35 686.6L352.73 684.9L341.5 684.98C340.424 682.635 339.838 680.096 339.776 677.517C339.714 674.938 340.178 672.374 341.14 669.98L356.21 677.8L342.31 667.58C343.606 665.318 345.355 663.349 347.448 661.794C349.541 660.24 351.932 659.135 354.472 658.547C357.012 657.959 359.646 657.902 362.208 658.38C364.771 658.857 367.208 659.858 369.366 661.32C371.524 662.783 373.357 664.675 374.75 666.878C376.143 669.082 377.066 671.549 377.462 674.126C377.857 676.703 377.717 679.333 377.049 681.853C376.381 684.373 375.2 686.728 373.58 688.77C374.425 689.836 375.15 690.993 375.74 692.22L362.26 699.22L376.64 694.42C377.3 696.379 377.638 698.433 377.64 700.5C377.645 704.746 376.214 708.87 373.58 712.2C375.775 714.992 377.141 718.346 377.521 721.878C377.901 725.41 377.279 728.978 375.727 732.173C374.175 735.368 371.755 738.063 368.744 739.947C365.733 741.832 362.252 742.832 358.7 742.832C355.147 742.832 351.667 741.832 348.655 739.947C345.644 738.063 343.224 735.368 341.672 732.173C340.12 728.978 339.498 725.41 339.878 721.878C340.258 718.346 341.624 714.992 343.82 712.2C341.196 708.863 339.77 704.74 339.77 700.495C339.77 696.25 341.196 692.128 343.82 688.79V688.77Z" fill="#80CBC4"/>
<path opacity="0.1" d="M377.64 700.48C377.645 704.726 376.214 708.85 373.58 712.18C375.775 714.972 377.141 718.326 377.521 721.858C377.901 725.39 377.279 728.958 375.727 732.153C374.175 735.348 371.755 738.042 368.744 739.927C365.733 741.812 362.252 742.812 358.7 742.812C355.147 742.812 351.667 741.812 348.655 739.927C345.644 738.042 343.224 735.348 341.672 732.153C340.12 728.958 339.498 725.39 339.878 721.858C340.258 718.326 341.624 714.972 343.82 712.18C341.28 708.96 377.64 698.35 377.64 700.48Z" fill="black"/>
<path d="M105.17 724.64C117.779 724.64 128 722.674 128 720.25C128 717.825 117.779 715.86 105.17 715.86C92.5612 715.86 82.3398 717.825 82.3398 720.25C82.3398 722.674 92.5612 724.64 105.17 724.64Z" fill="#80CBC4"/>
<path d="M105.56 721.87C107.029 721.87 108.22 720.312 108.22 718.39C108.22 716.468 107.029 714.91 105.56 714.91C104.091 714.91 102.9 716.468 102.9 718.39C102.9 720.312 104.091 721.87 105.56 721.87Z" fill="#3F3D56"/>
<path d="M105.56 717.62C107.029 717.62 108.22 716.062 108.22 714.14C108.22 712.218 107.029 710.66 105.56 710.66C104.091 710.66 102.9 712.218 102.9 714.14C102.9 716.062 104.091 717.62 105.56 717.62Z" fill="#3F3D56"/>
<path d="M105.56 713.36C107.029 713.36 108.22 711.802 108.22 709.88C108.22 707.958 107.029 706.4 105.56 706.4C104.091 706.4 102.9 707.958 102.9 709.88C102.9 711.802 104.091 713.36 105.56 713.36Z" fill="#3F3D56"/>
<path d="M105.56 709.11C107.029 709.11 108.22 707.552 108.22 705.63C108.22 703.708 107.029 702.15 105.56 702.15C104.091 702.15 102.9 703.708 102.9 705.63C102.9 707.552 104.091 709.11 105.56 709.11Z" fill="#3F3D56"/>
<path d="M105.56 704.86C107.029 704.86 108.22 703.302 108.22 701.38C108.22 699.458 107.029 697.9 105.56 697.9C104.091 697.9 102.9 699.458 102.9 701.38C102.9 703.302 104.091 704.86 105.56 704.86Z" fill="#3F3D56"/>
<path d="M105.56 700.61C107.029 700.61 108.22 699.052 108.22 697.13C108.22 695.208 107.029 693.65 105.56 693.65C104.091 693.65 102.9 695.208 102.9 697.13C102.9 699.052 104.091 700.61 105.56 700.61Z" fill="#3F3D56"/>
<path d="M105.56 696.36C107.029 696.36 108.22 694.802 108.22 692.88C108.22 690.958 107.029 689.4 105.56 689.4C104.091 689.4 102.9 690.958 102.9 692.88C102.9 694.802 104.091 696.36 105.56 696.36Z" fill="#3F3D56"/>
<path d="M95.6091 663.78C95.2371 663.321 94.9027 662.833 94.6091 662.32L101.609 661.18H94.0591C93.3326 659.606 92.9357 657.899 92.8927 656.166C92.8497 654.432 93.1616 652.709 93.8091 651.1L103.939 656.42L94.5891 649.55C95.4565 648.021 96.631 646.689 98.0387 645.637C99.4463 644.584 101.057 643.835 102.768 643.435C104.48 643.036 106.256 642.995 107.984 643.316C109.712 643.637 111.355 644.312 112.809 645.299C114.263 646.285 115.497 647.563 116.434 649.05C117.37 650.537 117.989 652.203 118.25 653.941C118.511 655.679 118.409 657.452 117.951 659.149C117.494 660.846 116.689 662.429 115.589 663.8C116.153 664.52 116.639 665.298 117.039 666.12L107.999 670.81L117.659 667.57C118.107 668.883 118.334 670.262 118.329 671.65C118.333 674.504 117.374 677.277 115.609 679.52C117.092 681.398 118.015 683.656 118.274 686.034C118.533 688.413 118.117 690.817 117.074 692.97C116.03 695.123 114.401 696.939 112.374 698.209C110.346 699.48 108.002 700.154 105.609 700.154C103.216 700.154 100.872 699.48 98.8445 698.209C96.8169 696.939 95.1881 695.123 94.1446 692.97C93.1011 690.817 92.685 688.413 92.944 686.034C93.203 683.656 94.1267 681.398 95.6091 679.52C93.841 677.278 92.8795 674.506 92.8795 671.65C92.8795 668.795 93.841 666.022 95.6091 663.78Z" fill="#80CBC4"/>
<path opacity="0.1" d="M118.341 671.65C118.344 674.504 117.386 677.277 115.621 679.52C117.103 681.398 118.027 683.656 118.286 686.034C118.545 688.413 118.129 690.817 117.085 692.97C116.042 695.123 114.413 696.939 112.386 698.209C110.358 699.48 108.014 700.153 105.621 700.153C103.228 700.153 100.884 699.48 98.8562 698.209C96.8287 696.939 95.1999 695.123 94.1563 692.97C93.1128 690.817 92.6967 688.413 92.9557 686.034C93.2147 683.656 94.1384 681.398 95.6209 679.52C93.9009 677.36 118.341 670.22 118.341 671.65Z" fill="black"/>
</g>
<defs>
<linearGradient id="paint0_linear_368_1993" x1="709.491" y1="808.07" x2="709.491" y2="311.01" gradientUnits="userSpaceOnUse">
<stop stop-color="#808080" stop-opacity="0.25"/>
<stop offset="0.54" stop-color="#808080" stop-opacity="0.12"/>
<stop offset="1" stop-color="#808080" stop-opacity="0.1"/>
</linearGradient>
<linearGradient id="paint1_linear_368_1993" x1="143.88" y1="548.39" x2="361.2" y2="548.39" gradientUnits="userSpaceOnUse">
<stop stop-color="#808080" stop-opacity="0.25"/>
<stop offset="0.54" stop-color="#808080" stop-opacity="0.12"/>
<stop offset="1" stop-color="#808080" stop-opacity="0.1"/>
</linearGradient>
<clipPath id="clip0_368_1993">
<rect width="1130" height="814.83" fill="white"/>
</clipPath>
</defs>
</svg>
