<svg width="1129" height="787" viewBox="0 0 1129 787" fill="none" xmlns="http://www.w3.org/2000/svg">
<g clip-path="url(#clip0_368_2225)">
<mask id="mask0_368_2225" style="mask-type:luminance" maskUnits="userSpaceOnUse" x="0" y="0" width="1129" height="787">
<path d="M1128.33 0H0V786.75H1128.33V0Z" fill="white"/>
</mask>
<g mask="url(#mask0_368_2225)">
<path opacity="0.1" d="M655.699 124.47C583.389 121.96 514.519 98.6099 448.749 73.0699C382.979 47.5299 317.839 19.2299 247.249 5.69992C201.859 -3.01008 149.939 -4.24008 113.359 20.0999C78.1591 43.5199 66.7891 83.9499 60.6691 121.47C56.0691 149.7 53.3691 179.4 65.9691 205.83C74.7191 224.17 90.2591 239.59 100.969 257.16C138.359 318.31 111.969 393.7 71.4091 453.41C52.4091 481.41 30.3491 508.13 15.6891 537.94C1.02908 567.75 -5.73092 601.91 7.15908 632.37C19.8791 662.51 50.1591 685.15 83.0291 701.08C149.669 733.37 228.259 742.63 304.889 747.87C474.529 759.47 645.079 754.45 815.169 749.42C878.109 747.55 941.339 745.67 1003.26 735.93C1037.65 730.53 1073.15 721.93 1098.12 701.24C1129.81 674.95 1137.67 630.43 1116.43 597.46C1080.81 542.16 982.319 528.46 957.429 469.08C943.719 436.42 957.799 400.03 977.719 369.74C1020.44 304.74 1092.05 247.74 1095.82 173.45C1098.42 122.45 1063.99 71.3299 1010.76 47.1899C954.959 21.8899 877.599 25.0699 836.429 66.9599C794.039 110.09 719.549 126.68 655.699 124.47Z" fill="#80CBC4"/>
<path d="M902.639 681.91C898.581 680.597 894.293 680.141 890.049 680.57C884.879 681.13 885.609 689 890.799 688.63C893.395 688.43 895.962 687.957 898.459 687.22L902.639 681.91Z" fill="#80CBC4"/>
<path d="M904.21 681.98C906.079 685.819 907.128 690.004 907.291 694.27C907.461 699.47 899.56 699.84 899.2 694.65C899.044 692.052 899.158 689.445 899.541 686.87L904.21 681.98Z" fill="#80CBC4"/>
<path d="M915.969 665.14C915.969 665.14 913.439 657.2 897.969 660.28C890.969 661.67 891.159 671.71 898.169 672.77H898.469C908.679 674.19 912.229 670.14 915.969 665.14Z" fill="#80CBC4"/>
<path d="M917.579 664.67C917.579 664.67 925.89 665.32 926.41 681.07C926.65 688.16 916.839 690.31 914.209 683.73C914.209 683.63 914.14 683.54 914.1 683.44C910.43 673.83 913.559 669.45 917.579 664.67Z" fill="#80CBC4"/>
<path d="M928.679 644.37C928.095 641.488 926.753 638.814 924.792 636.624C922.83 634.434 920.319 632.807 917.519 631.91C907.049 628.61 901.519 644.27 911.749 648.25C915.983 649.796 920.491 650.45 924.989 650.17L928.679 644.37Z" fill="#80CBC4"/>
<path d="M941.451 618.22C941.451 618.22 937.221 608.22 926.251 606.22C914.621 604.09 911.101 621.56 922.591 624.35C927.746 625.47 933.077 625.514 938.251 624.48L941.451 618.22Z" fill="#80CBC4"/>
<path d="M949.16 592.47C947.369 589.655 945.03 587.23 942.281 585.34C939.532 583.45 936.43 582.134 933.16 581.47C923.16 579.59 919.79 594.56 929.61 597.12C935.777 598.628 942.227 598.538 948.35 596.86L949.16 592.47Z" fill="#80CBC4"/>
<path d="M956.43 567.37C953.239 562.11 948.274 558.163 942.43 556.24C932.43 553.17 927.49 568.33 937.43 571.63C943.323 573.585 949.693 573.561 955.57 571.56L956.43 567.37Z" fill="#80CBC4"/>
<path d="M959.491 544.5C959.491 544.5 955.491 535.12 947.341 530.16C938.261 524.63 929.611 538.16 938.341 544.25C943.721 548.02 950.611 550.62 958.661 548.88L959.491 544.5Z" fill="#80CBC4"/>
<path d="M961 517.37C961 517.37 956.59 507.9 948.13 503.37C938.67 498.37 930.44 512.19 939.35 518.15C945.18 522.04 952.46 524.56 960.19 521.52L961 517.37Z" fill="#80CBC4"/>
<path d="M960.059 492.63C956.759 487.509 952.715 482.909 948.059 478.98C941.439 473.57 933.059 483.31 939.329 489.09C945.119 494.4 952.329 498.86 959.779 498.5L960.059 492.63Z" fill="#80CBC4"/>
<path d="M957.55 468.89C953.77 462.513 949.215 456.629 943.99 451.37C938.81 446.37 931.15 453.99 935.99 459.26C941.58 465.26 949.12 471.48 958.18 474.2L957.55 468.89Z" fill="#80CBC4"/>
<path d="M952.7 440.97C949.583 436.124 945.952 431.628 941.87 427.56C936.65 422.45 928.78 430.14 933.79 435.45C939.11 441.1 945.99 446.39 954.06 448.19L952.7 440.97Z" fill="#80CBC4"/>
<path d="M948.461 414.92C945.255 410.581 941.778 406.449 938.051 402.55C933.871 398.24 927.191 404.3 931.131 408.84C935.761 414.18 941.701 418.91 948.531 419.67L948.461 414.92Z" fill="#80CBC4"/>
<path d="M944.061 390.76C941.138 385.038 937.795 379.539 934.061 374.31C930.931 370.03 924.411 374.61 927.361 379.01C931.221 384.78 936.581 390.49 943.621 393.24L944.061 390.76Z" fill="#80CBC4"/>
<path d="M940.431 358.65C940.431 358.65 937.961 354.46 934.431 349.59C931.171 345.1 924.291 349.74 927.311 354.39C930.711 359.6 934.971 364.04 939.931 364.92L940.431 358.65Z" fill="#80CBC4"/>
<path d="M938.7 337.37L935.57 321.72C934.74 317.58 928.57 318.57 929.07 322.72C930.19 331.08 933.07 339.49 939.34 345.01L938.7 337.37Z" fill="#80CBC4"/>
<path d="M940.559 292.89C940.268 292.198 939.733 291.637 939.055 291.313C938.378 290.989 937.606 290.924 936.884 291.131C936.162 291.338 935.542 291.802 935.139 292.436C934.736 293.07 934.58 293.829 934.699 294.57C935.395 298.917 936.452 303.199 937.859 307.37L940.559 292.89Z" fill="#80CBC4"/>
<path d="M929.38 644.06C932.174 643.138 935.163 642.978 938.039 643.597C940.914 644.216 943.573 645.591 945.74 647.58C953.74 655.05 942.92 667.58 934.39 660.69C930.952 657.775 928.151 654.184 926.16 650.14L929.38 644.06Z" fill="#80CBC4"/>
<path d="M942.16 617.27C942.16 617.27 952.68 614.73 960.82 622.35C969.45 630.43 957.52 643.66 948.43 636.09C944.458 632.614 941.248 628.355 939 623.58L942.16 617.27Z" fill="#80CBC4"/>
<path d="M949.85 594.23C952.569 592.283 955.654 590.906 958.919 590.181C962.184 589.456 965.562 589.398 968.85 590.01C978.85 592.01 976.36 607.14 966.29 605.85C960.008 604.938 954.061 602.443 949.01 598.6L949.85 594.23Z" fill="#80CBC4"/>
<path d="M956.929 567.51C961.844 563.821 967.916 562.008 974.049 562.4C984.509 563.31 983.389 579.2 972.919 578.54C966.721 578.154 960.82 575.748 956.119 571.69L956.929 567.51Z" fill="#80CBC4"/>
<path d="M959.359 545.15C959.359 545.15 964.909 536.59 973.769 533.09C983.599 529.2 989.909 543.93 980.359 548.46C974.359 551.29 967.129 552.72 959.449 549.61L959.359 545.15Z" fill="#80CBC4"/>
<path d="M959.711 516.96C959.711 516.96 965.321 508.16 974.291 504.8C984.291 501.05 990.681 515.85 981.071 520.6C974.781 523.7 967.231 525.24 959.971 521.22L959.711 516.96Z" fill="#80CBC4"/>
<path d="M957.83 492.37C959.957 486.662 962.923 481.303 966.63 476.47C971.93 469.76 982.24 477.47 977.32 484.47C972.8 490.9 966.76 496.79 959.32 498.04L957.83 492.37Z" fill="#80CBC4"/>
<path d="M957.061 468.85C958.9 461.653 961.627 454.713 965.181 448.19C968.771 441.97 978.241 447.12 975.021 453.54C971.341 460.89 965.82 468.94 957.88 474.09L957.061 468.85Z" fill="#80CBC4"/>
<path d="M951.26 439.67C953.419 434.123 956.19 428.834 959.52 423.9C963.64 417.9 972.77 423.78 969 429.98C964.9 436.74 959.12 443.54 951.37 446.98L951.26 439.67Z" fill="#80CBC4"/>
<path d="M946.641 414.78C947.756 409.504 949.202 404.304 950.971 399.21C952.971 393.54 961.581 396.28 959.881 402.05C957.881 408.83 954.451 415.6 948.561 419.13L946.641 414.78Z" fill="#80CBC4"/>
<path d="M943.43 390.29C944.973 384.047 946.979 377.926 949.43 371.98C951.51 367.1 958.91 370.07 957.03 375.03C954.59 381.53 950.67 388.31 944.45 392.59L943.43 390.29Z" fill="#80CBC4"/>
<path d="M938.619 360.85C938.619 360.85 939.559 356.08 941.269 350.31C942.849 344.99 950.889 347.08 949.579 352.47C948.119 358.47 945.579 364.12 941.179 366.6L938.619 360.85Z" fill="#80CBC4"/>
<path d="M939.741 336.31L945.181 321.31C946.621 317.31 952.621 319.25 951.451 323.31C949.101 331.41 945.021 339.31 937.971 343.81L939.741 336.31Z" fill="#80CBC4"/>
<path d="M946.52 294.46C946.52 294.46 947.37 293.78 948.67 292.71C951.32 290.51 954.78 294.35 952.28 296.71C947.928 300.666 942.924 303.84 937.49 306.09L946.52 294.46Z" fill="#80CBC4"/>
<path d="M946.161 285.77C949.412 279.131 953.034 272.681 957.011 266.45C957.239 266.02 957.302 265.522 957.19 265.049C957.077 264.576 956.796 264.16 956.398 263.879C956.001 263.598 955.515 263.472 955.032 263.524C954.548 263.575 954.1 263.802 953.771 264.16C950.571 268.54 947.431 274.95 945.051 284.37L946.161 285.77Z" fill="#80CBC4"/>
<path d="M939.959 365.17L941.119 365.05C936.119 318.44 938.229 289.7 946.969 284.13L946.339 283.13C937.079 289.06 934.879 317.42 939.959 365.17Z" fill="#444053"/>
<path d="M957.159 475.37L958.889 475.11C958.239 470.8 957.489 466.42 956.649 462.11C949.369 424.28 943.709 389.31 940.879 362.75L939.609 361.75C942.449 388.36 947.609 424.54 954.939 462.42C955.759 466.7 956.509 471.07 957.159 475.37Z" fill="#444053"/>
<path d="M876.16 710.95C876.42 710.74 903.06 690.36 926.45 651.27C940.159 628.394 950.15 603.488 956.05 577.48C963.44 544.97 963.65 507.11 958.32 471.65L956.76 472.9C968.76 552.48 945.87 614.27 924.51 649.99C901.35 688.72 875.02 708.89 874.75 709.09L876.16 710.95Z" fill="#444053"/>
<path d="M194.021 710.77C230.775 710.77 260.571 705.039 260.571 697.97C260.571 690.901 230.775 685.17 194.021 685.17C157.266 685.17 127.471 690.901 127.471 697.97C127.471 705.039 157.266 710.77 194.021 710.77Z" fill="#80CBC4"/>
<path d="M192.9 702.67C197.181 702.67 200.65 698.13 200.65 692.53C200.65 686.93 197.181 682.39 192.9 682.39C188.62 682.39 185.15 686.93 185.15 692.53C185.15 698.13 188.62 702.67 192.9 702.67Z" fill="#3F3D56"/>
<path d="M192.9 690.27C197.181 690.27 200.65 685.73 200.65 680.13C200.65 674.53 197.181 669.99 192.9 669.99C188.62 669.99 185.15 674.53 185.15 680.13C185.15 685.73 188.62 690.27 192.9 690.27Z" fill="#3F3D56"/>
<path d="M192.9 677.88C197.181 677.88 200.65 673.34 200.65 667.74C200.65 662.14 197.181 657.6 192.9 657.6C188.62 657.6 185.15 662.14 185.15 667.74C185.15 673.34 188.62 677.88 192.9 677.88Z" fill="#3F3D56"/>
<path d="M192.9 665.48C197.181 665.48 200.65 660.94 200.65 655.34C200.65 649.74 197.181 645.2 192.9 645.2C188.62 645.2 185.15 649.74 185.15 655.34C185.15 660.94 188.62 665.48 192.9 665.48Z" fill="#3F3D56"/>
<path d="M192.9 653.08C197.181 653.08 200.65 648.54 200.65 642.94C200.65 637.34 197.181 632.8 192.9 632.8C188.62 632.8 185.15 637.34 185.15 642.94C185.15 648.54 188.62 653.08 192.9 653.08Z" fill="#3F3D56"/>
<path d="M192.9 640.69C197.181 640.69 200.65 636.15 200.65 630.55C200.65 624.95 197.181 620.41 192.9 620.41C188.62 620.41 185.15 624.95 185.15 630.55C185.15 636.15 188.62 640.69 192.9 640.69Z" fill="#3F3D56"/>
<path d="M192.9 628.29C197.181 628.29 200.65 623.75 200.65 618.15C200.65 612.55 197.181 608.01 192.9 608.01C188.62 608.01 185.15 612.55 185.15 618.15C185.15 623.75 188.62 628.29 192.9 628.29Z" fill="#3F3D56"/>
<path d="M221.901 533.31C222.963 531.963 223.928 530.543 224.791 529.06L204.431 525.72L226.431 525.88C228.544 521.286 229.698 516.309 229.82 511.253C229.942 506.198 229.03 501.171 227.141 496.48L197.601 511.8L224.841 491.8C222.294 487.379 218.863 483.531 214.762 480.495C210.661 477.46 205.979 475.302 201.007 474.157C196.035 473.012 190.88 472.904 185.865 473.841C180.849 474.777 176.081 476.737 171.857 479.599C167.633 482.461 164.044 486.162 161.314 490.473C158.585 494.784 156.774 499.611 155.993 504.653C155.213 509.695 155.48 514.844 156.779 519.778C158.078 524.712 160.379 529.325 163.541 533.33C161.894 535.43 160.476 537.699 159.311 540.1L185.741 553.83L157.581 544.37C155.604 550.22 155.118 556.47 156.165 562.555C157.213 568.64 159.762 574.368 163.581 579.22C159.272 584.695 156.591 591.272 155.844 598.199C155.098 605.126 156.316 612.123 159.359 618.39C162.402 624.657 167.147 629.942 173.052 633.639C178.957 637.336 185.784 639.297 192.751 639.297C199.718 639.297 206.544 637.336 212.449 633.639C218.354 629.942 223.1 624.657 226.143 618.39C229.186 612.123 230.404 605.126 229.657 598.199C228.91 591.272 226.229 584.695 221.921 579.22C227.07 572.68 229.87 564.599 229.87 556.275C229.87 547.951 227.07 539.87 221.921 533.33L221.901 533.31Z" fill="#80CBC4"/>
<path opacity="0.1" d="M155.619 556.26C155.611 564.582 158.408 572.664 163.559 579.2C159.251 584.675 156.57 591.252 155.823 598.179C155.077 605.106 156.294 612.103 159.337 618.37C162.381 624.637 167.126 629.922 173.031 633.619C178.936 637.316 185.762 639.277 192.729 639.277C199.696 639.277 206.523 637.316 212.428 633.619C218.333 629.922 223.078 624.637 226.121 618.37C229.164 612.103 230.382 605.106 229.636 598.179C228.889 591.252 226.208 584.675 221.899 579.2C226.879 572.89 155.619 552.09 155.619 556.26Z" fill="black"/>
<path d="M231.971 261.24V702.95C231.971 704.975 232.37 706.98 233.144 708.851C233.919 710.722 235.055 712.422 236.487 713.854C237.919 715.285 239.619 716.421 241.49 717.196C243.361 717.971 245.366 718.37 247.391 718.37H881.261C885.35 718.37 889.272 716.745 892.164 713.854C895.056 710.962 896.681 707.04 896.681 702.95V261.24H231.971Z" fill="white"/>
<path opacity="0.1" d="M434.82 300.78H293.22C288.443 300.78 284.57 304.653 284.57 309.43V385.4C284.57 390.177 288.443 394.05 293.22 394.05H434.82C439.598 394.05 443.47 390.177 443.47 385.4V309.43C443.47 304.653 439.598 300.78 434.82 300.78Z" fill="black"/>
<path opacity="0.1" d="M635.131 300.78H493.531C488.754 300.78 484.881 304.653 484.881 309.43V385.4C484.881 390.177 488.754 394.05 493.531 394.05H635.131C639.908 394.05 643.781 390.177 643.781 385.4V309.43C643.781 304.653 639.908 300.78 635.131 300.78Z" fill="black"/>
<path d="M432.581 302.09H295.451C290.674 302.09 286.801 305.963 286.801 310.74V384.08C286.801 388.857 290.674 392.73 295.451 392.73H432.581C437.358 392.73 441.231 388.857 441.231 384.08V310.74C441.231 305.963 437.358 302.09 432.581 302.09Z" fill="#80CBC4"/>
<path opacity="0.1" d="M696.07 392.73H833.2C837.977 392.73 841.85 388.857 841.85 384.08V310.74C841.85 305.963 837.977 302.09 833.2 302.09H696.07C691.292 302.09 687.42 305.963 687.42 310.74V384.08C687.42 388.857 691.292 392.73 696.07 392.73Z" fill="#444053"/>
<path d="M495.759 392.73H632.889C637.666 392.73 641.539 388.857 641.539 384.08V310.74C641.539 305.963 637.666 302.09 632.889 302.09H495.759C490.982 302.09 487.109 305.963 487.109 310.74V384.08C487.109 388.857 490.982 392.73 495.759 392.73Z" fill="#80CBC4"/>
<path opacity="0.1" d="M432.581 433.02H295.451C290.674 433.02 286.801 436.893 286.801 441.67V515.01C286.801 519.787 290.674 523.66 295.451 523.66H432.581C437.358 523.66 441.231 519.787 441.231 515.01V441.67C441.231 436.893 437.358 433.02 432.581 433.02Z" fill="#444053"/>
<path opacity="0.1" d="M696.07 523.66H833.2C837.977 523.66 841.85 519.787 841.85 515.01V441.67C841.85 436.893 837.977 433.02 833.2 433.02H696.07C691.292 433.02 687.42 436.893 687.42 441.67V515.01C687.42 519.787 691.292 523.66 696.07 523.66Z" fill="#444053"/>
<path opacity="0.1" d="M495.759 523.66H632.889C637.666 523.66 641.539 519.787 641.539 515.01V441.67C641.539 436.893 637.666 433.02 632.889 433.02H495.759C490.982 433.02 487.109 436.893 487.109 441.67V515.01C487.109 519.787 490.982 523.66 495.759 523.66Z" fill="#444053"/>
<path opacity="0.1" d="M432.581 563.95H295.451C290.674 563.95 286.801 567.823 286.801 572.6V645.94C286.801 650.717 290.674 654.59 295.451 654.59H432.581C437.358 654.59 441.231 650.717 441.231 645.94V572.6C441.231 567.823 437.358 563.95 432.581 563.95Z" fill="#444053"/>
<path opacity="0.1" d="M696.07 654.6H833.2C837.977 654.6 841.85 650.727 841.85 645.95V572.61C841.85 567.833 837.977 563.96 833.2 563.96H696.07C691.292 563.96 687.42 567.833 687.42 572.61V645.95C687.42 650.727 691.292 654.6 696.07 654.6Z" fill="#444053"/>
<path opacity="0.1" d="M495.759 654.6H632.889C637.666 654.6 641.539 650.727 641.539 645.95V572.61C641.539 567.833 637.666 563.96 632.889 563.96H495.759C490.982 563.96 487.109 567.833 487.109 572.61V645.95C487.109 650.727 490.982 654.6 495.759 654.6Z" fill="#444053"/>
<path d="M231.971 183.23V263.48H896.681V183.23C896.682 181.204 896.284 179.198 895.51 177.326C894.735 175.454 893.6 173.753 892.168 172.32C890.736 170.887 889.035 169.75 887.164 168.975C885.293 168.199 883.287 167.8 881.261 167.8H247.391C245.365 167.8 243.359 168.199 241.487 168.975C239.616 169.75 237.916 170.887 236.484 172.32C235.052 173.753 233.916 175.454 233.142 177.326C232.367 179.198 231.969 181.204 231.971 183.23ZM396.471 206.97C394.036 206.97 391.656 206.248 389.632 204.895C387.607 203.543 386.029 201.62 385.098 199.371C384.166 197.122 383.922 194.646 384.397 192.258C384.872 189.871 386.045 187.677 387.766 185.956C389.488 184.234 391.681 183.062 394.069 182.587C396.457 182.112 398.932 182.355 401.182 183.287C403.431 184.219 405.353 185.797 406.706 187.821C408.059 189.845 408.781 192.225 408.781 194.66C408.781 197.925 407.484 201.056 405.175 203.365C402.867 205.673 399.736 206.97 396.471 206.97ZM732.181 206.97C729.746 206.97 727.366 206.248 725.342 204.895C723.317 203.543 721.739 201.62 720.808 199.371C719.876 197.122 719.632 194.646 720.107 192.258C720.582 189.871 721.755 187.677 723.476 185.956C725.198 184.234 727.391 183.062 729.779 182.587C732.167 182.112 734.642 182.355 736.892 183.287C739.141 184.219 741.063 185.797 742.416 187.821C743.769 189.845 744.491 192.225 744.491 194.66C744.491 196.278 744.172 197.881 743.552 199.376C742.932 200.87 742.023 202.228 740.878 203.372C739.733 204.515 738.374 205.421 736.878 206.039C735.382 206.656 733.779 206.973 732.161 206.97H732.181Z" fill="#80CBC4"/>
<path opacity="0.1" d="M396.47 180.11C393.592 180.108 390.778 180.96 388.384 182.557C385.99 184.155 384.123 186.427 383.021 189.085C381.918 191.744 381.628 194.669 382.189 197.493C382.749 200.316 384.134 202.909 386.168 204.945C388.203 206.981 390.795 208.368 393.618 208.93C396.441 209.492 399.367 209.204 402.026 208.104C404.685 207.003 406.958 205.138 408.557 202.745C410.157 200.352 411.01 197.538 411.01 194.66C411.011 192.75 410.636 190.858 409.906 189.093C409.176 187.328 408.105 185.724 406.755 184.372C405.405 183.021 403.801 181.949 402.037 181.218C400.272 180.487 398.38 180.11 396.47 180.11ZM396.47 206.97C394.035 206.97 391.655 206.248 389.631 204.895C387.607 203.543 386.029 201.62 385.097 199.371C384.165 197.122 383.922 194.646 384.397 192.259C384.872 189.871 386.044 187.677 387.766 185.956C389.487 184.234 391.681 183.062 394.069 182.587C396.457 182.112 398.932 182.355 401.181 183.287C403.43 184.219 405.353 185.797 406.706 187.821C408.058 189.845 408.78 192.225 408.78 194.66C408.78 197.925 407.483 201.056 405.175 203.365C402.866 205.673 399.735 206.97 396.47 206.97Z" fill="black"/>
<path opacity="0.1" d="M732.159 180.11C729.282 180.11 726.469 180.963 724.076 182.562C721.683 184.161 719.818 186.433 718.717 189.092C717.616 191.751 717.328 194.676 717.889 197.499C718.45 200.321 719.836 202.914 721.871 204.949C723.906 206.983 726.498 208.369 729.321 208.931C732.143 209.492 735.069 209.204 737.727 208.103C740.386 207.001 742.659 205.136 744.257 202.744C745.856 200.351 746.709 197.538 746.709 194.66C746.709 190.801 745.176 187.1 742.448 184.372C739.719 181.643 736.018 180.11 732.159 180.11ZM732.159 206.97C729.725 206.97 727.345 206.248 725.32 204.895C723.296 203.543 721.718 201.62 720.786 199.371C719.855 197.122 719.611 194.646 720.086 192.259C720.561 189.871 721.733 187.677 723.455 185.956C725.177 184.234 727.37 183.062 729.758 182.587C732.146 182.112 734.621 182.355 736.87 183.287C739.12 184.219 741.042 185.797 742.395 187.821C743.747 189.845 744.469 192.225 744.469 194.66C744.469 197.925 743.172 201.056 740.864 203.365C738.555 205.673 735.424 206.97 732.159 206.97Z" fill="black"/>
<path opacity="0.1" d="M1033.1 435.21C1041.53 435.21 1048.37 428.373 1048.37 419.94C1048.37 411.507 1041.53 404.67 1033.1 404.67C1024.67 404.67 1017.83 411.507 1017.83 419.94C1017.83 428.373 1024.67 435.21 1033.1 435.21Z" fill="#80CBC4"/>
<path opacity="0.1" d="M1087.73 377.44C1101.87 377.44 1113.33 365.978 1113.33 351.84C1113.33 337.702 1101.87 326.24 1087.73 326.24C1073.59 326.24 1062.13 337.702 1062.13 351.84C1062.13 365.978 1073.59 377.44 1087.73 377.44Z" fill="#80CBC4"/>
<path opacity="0.1" d="M1053.84 501.66C1067.98 501.66 1079.44 490.198 1079.44 476.06C1079.44 461.921 1067.98 450.46 1053.84 450.46C1039.7 450.46 1028.24 461.921 1028.24 476.06C1028.24 490.198 1039.7 501.66 1053.84 501.66Z" fill="#80CBC4"/>
<path opacity="0.1" d="M36.25 381.81C56.2703 381.81 72.5 365.58 72.5 345.56C72.5 325.54 56.2703 309.31 36.25 309.31C16.2297 309.31 0 325.54 0 345.56C0 365.58 16.2297 381.81 36.25 381.81Z" fill="#80CBC4"/>
<path d="M925.651 740.37C923.374 738.656 920.879 737.253 918.231 736.2C918.029 736.096 917.807 736.038 917.581 736.03C912.101 732.097 906.981 727.687 902.281 722.85C903.281 722.05 904.201 721.27 905.181 720.5C899.181 717.64 895.851 711.09 892.611 705.18C884.044 689.469 872.755 675.404 859.271 663.64C858.941 662.37 857.011 662.64 855.981 661.82C855.645 661.497 855.4 661.091 855.272 660.643C855.144 660.195 855.136 659.722 855.251 659.27C855.411 658.35 855.831 657.5 856.061 656.6C856.611 654.49 856.131 652.27 855.891 650.1C855.651 647.93 855.751 645.51 857.191 643.89C857.651 643.36 858.241 642.95 858.691 642.41C859.163 641.774 859.497 641.045 859.669 640.272C859.841 639.498 859.849 638.697 859.691 637.92C859.582 636.363 859.245 634.83 858.691 633.37C863.591 620.037 868.487 606.68 873.381 593.3C876.811 583.96 880.271 574.42 880.621 564.46C880.901 556.46 878.841 548.15 874.001 542.04C874.881 541.83 875.761 541.61 876.631 541.36C870.911 533.78 870.291 523.74 870.141 514.19C870.061 509.43 869.897 504.667 869.651 499.9C871.311 500.63 872.991 501.28 874.711 501.84L876.311 502.33C878.909 503.091 881.559 503.659 884.241 504.03C885.421 504.2 886.621 504.33 887.811 504.41C886.091 500.103 884.374 495.79 882.661 491.47C881.769 489.558 881.228 487.503 881.061 485.4V485C881.061 484.76 881.061 484.52 881.111 484.28C881.179 483.707 881.31 483.144 881.501 482.6C881.589 482.331 881.693 482.067 881.811 481.81C882.167 481.022 882.595 480.269 883.091 479.56C883.451 479.01 883.851 478.48 884.251 477.94C885.741 476.201 886.952 474.241 887.841 472.13C888.192 471.061 888.378 469.945 888.391 468.82C888.41 467.679 888.309 466.54 888.091 465.42C887.951 464.68 887.771 463.93 887.571 463.21C887.441 462.76 887.301 462.31 887.161 461.87L887.041 461.51C886.931 461.17 886.821 460.84 886.701 460.51L886.581 460.17C886.451 459.81 886.321 459.46 886.181 459.1L886.101 458.89C884.191 453.98 881.651 449.3 880.101 444.25C879.693 442.906 879.359 441.541 879.101 440.16C879.031 439.81 878.981 439.45 878.921 439.1C878.861 438.75 878.831 438.5 878.791 438.2C878.751 437.9 878.701 437.5 878.661 437.15L878.571 436.15C878.571 435.83 878.521 435.51 878.501 435.15C878.501 434.54 878.441 433.93 878.431 433.32C878.431 433.1 878.431 432.89 878.431 432.67C878.431 432.21 878.431 431.74 878.431 431.28C878.431 431.03 878.431 430.78 878.431 430.54C878.431 430.08 878.501 429.62 878.541 429.17C878.541 428.95 878.541 428.73 878.611 428.52C878.677 427.853 878.767 427.187 878.881 426.52C878.981 425.93 879.091 425.33 879.211 424.73C879.573 423.088 879.76 421.412 879.771 419.73C879.771 419.41 879.771 419.08 879.701 418.73C879.631 418.38 879.621 418.19 879.571 417.93C879.566 417.85 879.566 417.77 879.571 417.69C879.571 417.51 879.481 417.33 879.441 417.15C879.401 416.97 879.391 416.98 879.361 416.9C879.331 416.82 879.251 416.55 879.191 416.38C879.131 416.21 879.141 416.23 879.111 416.15C879.081 416.07 878.971 415.79 878.891 415.62L878.821 415.44C878.721 415.22 878.611 415.01 878.501 414.8C878.113 414.07 877.665 413.375 877.161 412.72C873.871 408.4 868.401 405.11 865.391 400.35C863.633 397.265 862.489 393.869 862.021 390.35C861.871 389.55 861.741 388.75 861.601 387.96C861.461 387.17 861.341 386.39 861.201 385.61C861.111 385.13 861.021 384.61 860.921 384.17L860.861 383.86C860.781 383.48 860.701 383.09 860.611 382.71L860.551 382.44C860.461 382.04 860.371 381.64 860.271 381.24L860.211 381.03C860.111 380.61 860.001 380.19 859.891 379.77C859.886 379.72 859.886 379.67 859.891 379.62C859.771 379.18 859.641 378.74 859.511 378.3V378.21C859.371 377.75 859.231 377.3 859.081 376.85C858.931 376.39 858.771 375.92 858.601 375.46C858.421 374.99 858.251 374.52 858.061 374.06C856.803 370.838 855.1 367.809 853.001 365.06C848.421 359.18 841.341 354.96 834.001 355.24C830.061 355.39 826.281 356.77 822.571 358.14L812.941 361.69L815.631 360.45C812.831 360.7 809.971 360.96 807.441 362.2C804.911 363.44 802.771 365.87 802.691 368.71C802.641 370.36 803.291 372 803.081 373.64C802.731 376.35 800.241 378.19 798.951 380.59C798.195 382.036 797.849 383.661 797.951 385.29V385.37C797.951 385.56 797.951 385.74 797.951 385.93C797.946 385.983 797.946 386.037 797.951 386.09V386.41C793.951 384.67 789.951 382.86 785.951 380.92C779.341 377.67 772.651 373.85 768.531 367.69C767.211 365.69 766.191 363.53 764.881 361.55C763.378 359.419 761.705 357.413 759.881 355.55L747.611 342.27C746.671 344.04 747.881 346.13 748.831 347.89C749.839 349.736 750.603 351.706 751.101 353.75C751.343 354.416 751.321 355.149 751.041 355.8C750.594 356.336 750.015 356.747 749.361 356.99C748.24 357.695 747.384 358.752 746.926 359.994C746.469 361.237 746.435 362.596 746.831 363.86C747.266 365.105 748.018 366.214 749.012 367.08C750.006 367.947 751.208 368.539 752.501 368.8C753.367 368.899 754.217 369.107 755.031 369.42C756.511 370.15 757.211 371.85 758.271 373.12C760.201 375.44 763.271 376.31 766.201 377.07C770.741 382.31 775.461 387.33 780.001 392.57C786.871 400.5 793.901 408.57 802.861 413.93C803.791 414.49 804.741 415.01 805.701 415.49C805.701 415.65 805.701 415.81 805.651 415.97C805.4 417.152 805.551 418.384 806.081 419.47C806.881 420.74 808.531 421.12 810.001 421.38L816.781 422.59C816.72 423.469 816.61 424.344 816.451 425.21C816.361 425.74 816.251 426.26 816.151 426.79L816.031 427.47C816.031 427.47 816.031 427.54 816.031 427.57C816.031 427.6 816.031 427.93 815.961 428.12C815.891 428.31 815.961 428.25 815.961 428.31V428.79V428.99C815.961 429.2 815.961 429.42 815.961 429.64C816.191 432.3 817.961 434.5 819.731 436.53L820.681 437.68C819.173 439.578 818.116 441.794 817.591 444.16C817.289 445.644 817.142 447.156 817.151 448.67C816.244 449.535 815.558 450.605 815.151 451.79C814.677 453.429 814.5 455.139 814.631 456.84V456.96C814.631 457.59 814.631 458.21 814.631 458.84C814.514 461.229 814.91 463.616 815.791 465.84C815.881 466.02 815.981 466.18 816.071 466.35C814.571 469.29 812.071 471.58 810.281 474.35C808.47 477.425 807.651 480.984 807.936 484.541C808.22 488.098 809.594 491.482 811.871 494.23C813.241 495.81 815.001 497.33 815.161 499.43C815.137 500.382 815.043 501.331 814.881 502.27C814.721 504.53 815.761 506.67 816.321 508.86C816.791 510.68 816.811 512.86 815.771 514.32C814.719 515.854 814.234 517.707 814.401 519.56C814.911 522.39 813.741 525.22 813.541 528.09C813.451 529.32 813.541 530.57 813.431 531.8C813.286 532.979 813.042 534.143 812.701 535.28C812.701 535.4 812.641 535.53 812.601 535.66C810.131 536.75 807.681 537.88 805.321 539.19C804.046 539.758 802.992 540.727 802.321 541.95C801.922 543.178 801.866 544.492 802.161 545.75L804.291 560.57L803.921 560.41C804.087 562.837 804.261 565.273 804.441 567.72C804.571 569.57 804.741 571.53 805.841 573.01C806.4 573.607 806.906 574.253 807.351 574.94C808.191 576.64 807.191 578.62 806.451 580.36C805.711 582.1 805.451 584.57 807.081 585.51C807.931 586.101 808.847 586.591 809.811 586.97C807.811 595.31 809.651 604.05 811.511 612.42C812.931 618.82 814.354 625.213 815.781 631.6C816.338 634.313 816.653 637.071 816.721 639.84C816.721 640.24 816.721 640.64 816.721 641.04C816.921 644.848 817.593 648.617 818.721 652.26C820.941 659.74 818.811 668.72 819.511 676.87C819.976 680.79 820.758 684.666 821.851 688.46C826.681 707.62 830.991 726.4 832.651 746.1C834.426 748.361 836.835 750.043 839.571 750.93C839.371 753.35 839.641 756.12 839.571 757.53C839.568 758.698 839.386 759.858 839.031 760.97C838.181 763.19 836.031 764.64 833.801 765.42C833.101 765.66 832.391 765.85 831.671 766.02L832.471 765.34C827.899 764.347 823.119 765.187 819.161 767.68C818.539 767.997 817.986 768.434 817.535 768.966C817.083 769.498 816.742 770.115 816.531 770.78C816.366 772.05 816.695 773.335 817.451 774.37C819.652 777.593 822.933 779.923 826.701 780.94C830.424 781.92 834.251 782.454 838.101 782.53L845.161 782.94C844.921 783.343 844.835 783.82 844.92 784.281C845.004 784.743 845.253 785.158 845.621 785.45C846.377 786.003 847.276 786.329 848.211 786.39C851.095 786.818 854.024 786.862 856.921 786.52C857.647 786.499 858.348 786.247 858.921 785.8C859.054 785.679 859.16 785.532 859.233 785.367C859.306 785.203 859.343 785.025 859.343 784.845C859.343 784.665 859.306 784.487 859.233 784.323C859.16 784.158 859.054 784.011 858.921 783.89C859.344 783.877 859.754 783.736 860.096 783.486C860.439 783.236 860.698 782.889 860.841 782.49C861.117 781.677 861.206 780.812 861.101 779.96C860.911 776.67 860.621 771.89 858.911 768.96C858.615 768.427 858.153 768.005 857.595 767.76C857.037 767.514 856.413 767.458 855.821 767.6C854.714 761.745 854.046 755.815 853.821 749.86C855.582 749.199 857.299 748.424 858.961 747.54C854.051 739.61 853.961 729.54 855.461 720.32C856.056 717.409 856.493 714.468 856.771 711.51C857.101 705.61 856.211 698.93 852.941 694.05C858.902 697.841 864.176 702.615 868.541 708.17C875.451 717.17 879.661 728.07 888.131 735.57C889.244 734.483 890.371 733.403 891.511 732.33C893.297 735.357 894.987 738.447 896.581 741.6C897.831 743.919 898.817 746.371 899.521 748.91C900.301 752.794 900.392 756.785 899.791 760.7C899.557 762.78 899.274 764.85 898.941 766.91C898.806 767.791 898.602 768.661 898.331 769.51C898.327 769.239 898.262 768.972 898.141 768.73C897.611 767.8 896.141 768.22 895.341 768.86C893.916 769.929 892.739 771.294 891.891 772.86C891.424 773.625 891.207 774.516 891.271 775.41C891.4 775.948 891.646 776.451 891.992 776.883C892.338 777.315 892.774 777.666 893.271 777.91C896.981 780.08 901.641 778.51 905.621 776.91C906.72 776.514 907.768 775.987 908.741 775.34C910.741 773.9 911.831 771.53 913.821 770.13C914.883 769.547 915.908 768.899 916.891 768.19C918.741 766.5 918.891 763.65 920.241 761.51C922.481 757.82 927.491 756.87 929.451 752.96C931.721 748.64 929.071 743.19 925.651 740.37Z" fill="url(#paint0_linear_368_2225)"/>
<path d="M839.441 757.97C839.435 759.125 839.249 760.272 838.891 761.37C838.051 763.56 835.891 764.99 833.671 765.76C831.451 766.53 829.091 766.76 826.831 767.43C825.838 767.656 824.919 768.131 824.161 768.81C822.161 770.81 823.361 774.41 825.701 775.9C828.041 777.39 831.021 777.34 833.801 777.15C839.7 776.806 845.56 775.974 851.321 774.66C853.401 774.17 855.831 773.21 856.161 771.1C856.223 770.429 856.169 769.752 856.001 769.1C854.582 761.942 853.828 754.667 853.751 747.37C853.751 746.89 842.151 746.58 841.071 747.28C838.651 748.87 839.571 755.51 839.441 757.97Z" fill="#A1616A"/>
<path d="M891.159 732.5C893.079 735.68 894.883 738.923 896.569 742.23C897.819 744.515 898.805 746.933 899.509 749.44C900.284 753.27 900.376 757.208 899.779 761.07C899.546 763.117 899.259 765.16 898.919 767.2C898.589 769.2 898.059 771.47 896.349 772.62C897.112 773.072 897.966 773.347 898.848 773.425C899.731 773.503 900.62 773.382 901.449 773.07C903.099 772.431 904.621 771.5 905.939 770.32C914.509 763.25 920.939 752.98 921.259 741.87C921.35 741.002 921.187 740.127 920.789 739.35C920.385 738.806 919.875 738.351 919.289 738.01C912.895 733.654 906.955 728.666 901.559 723.12C901.242 722.694 900.78 722.398 900.259 722.29C899.85 722.292 899.449 722.407 899.099 722.62C895.809 724.27 890.309 726.62 888.939 730.37C889.876 730.842 890.649 731.584 891.159 732.5Z" fill="#A1616A"/>
<path d="M851.16 769.58C843.96 772.58 836.16 773.66 828.37 774.69C827.37 774.81 826.3 774.89 825.64 774.19C825.378 773.864 825.221 773.465 825.189 773.048C825.157 772.63 825.251 772.213 825.46 771.85C825.885 771.129 826.453 770.502 827.13 770.01L832.3 765.68C827.792 764.724 823.09 765.533 819.16 767.94C817.925 768.555 816.984 769.634 816.54 770.94C816.374 772.198 816.704 773.471 817.46 774.49C819.673 777.679 822.948 779.976 826.7 780.97C830.423 781.935 834.245 782.462 838.09 782.54L845.09 782.94C844.849 783.339 844.764 783.812 844.851 784.27C844.937 784.728 845.19 785.137 845.56 785.42C846.32 785.975 847.221 786.304 848.16 786.37C851.043 786.79 853.967 786.83 856.86 786.49C857.587 786.478 858.289 786.229 858.86 785.78C858.993 785.662 859.099 785.517 859.171 785.355C859.244 785.193 859.281 785.018 859.281 784.84C859.281 784.663 859.244 784.487 859.171 784.325C859.099 784.163 858.993 784.018 858.86 783.9C859.283 783.887 859.692 783.748 860.034 783.5C860.376 783.252 860.636 782.907 860.78 782.51C861.047 781.709 861.136 780.859 861.04 780.02C860.85 776.78 860.56 772.02 858.85 769.19C857.14 766.36 853.58 768.58 851.16 769.58Z" fill="#3F3D56"/>
<path d="M925.47 740.99C923.189 739.298 920.694 737.916 918.05 736.88C917.944 736.799 917.822 736.743 917.691 736.716C917.561 736.689 917.426 736.692 917.297 736.725C917.168 736.758 917.048 736.819 916.947 736.905C916.845 736.991 916.764 737.098 916.71 737.22C911.987 743.629 908.299 750.738 905.78 758.29C904.35 762.59 903.22 767.17 900.32 770.65C899.94 771.11 899.32 771.58 898.8 771.31C898.05 770.93 898.51 769.72 898.09 768.99C897.57 768.07 896.15 768.49 895.3 769.12C893.871 770.182 892.695 771.548 891.86 773.12C891.381 773.865 891.163 774.748 891.24 775.63C891.365 776.158 891.604 776.652 891.941 777.077C892.278 777.502 892.704 777.848 893.19 778.09C896.9 780.24 901.56 778.69 905.53 777.09C906.626 776.703 907.671 776.183 908.64 775.54C910.64 774.13 911.73 771.78 913.72 770.41C914.782 769.834 915.807 769.193 916.79 768.49C918.63 766.82 918.79 764.01 920.13 761.89C922.37 758.26 927.38 757.32 929.34 753.46C931.53 749.15 928.89 743.77 925.47 740.99Z" fill="#3F3D56"/>
<path d="M869.66 541.24C877.52 547.14 880.82 557.63 880.47 567.45C880.12 577.27 876.67 586.69 873.25 595.9C868.35 609.08 863.457 622.257 858.57 635.43C859.115 636.875 859.452 638.39 859.57 639.93C859.725 640.696 859.716 641.485 859.544 642.247C859.372 643.009 859.04 643.726 858.57 644.35C858.11 644.88 857.57 645.29 857.07 645.81C855.63 647.41 855.54 649.81 855.77 651.94C856 654.07 856.49 656.27 855.94 658.35C855.71 659.24 855.29 660.08 855.13 660.98C855.019 661.427 855.027 661.896 855.156 662.338C855.284 662.781 855.527 663.182 855.86 663.5C856.86 664.3 858.86 664.04 859.15 665.3C872.596 676.881 883.872 690.765 892.45 706.3C895.69 712.13 898.96 718.59 905.01 721.41C899.115 726.08 893.465 731.05 888.08 736.3C879.63 728.9 875.42 718.13 868.52 709.3C864.153 703.809 858.885 699.098 852.94 695.37C856.21 700.18 857.1 706.78 856.77 712.59C856.493 715.509 856.056 718.41 855.46 721.28C853.91 730.38 854.05 740.28 858.96 748.14C853.72 750.86 847.7 752.88 841.85 752.07C838.18 751.548 834.846 749.645 832.53 746.75C830.87 727.31 826.53 708.75 821.74 689.88C820.642 686.116 819.863 682.265 819.41 678.37C818.71 670.37 820.84 661.47 818.61 654.09C817.487 650.501 816.815 646.785 816.61 643.03C816.61 642.63 816.61 642.24 816.61 641.84C816.542 639.111 816.228 636.393 815.67 633.72L811.41 614.8C809.55 606.53 807.69 597.91 809.7 589.68C808.742 589.31 807.829 588.83 806.98 588.25C805.35 587.32 805.61 584.89 806.35 583.17C807.09 581.45 808.08 579.5 807.25 577.82C806.808 577.138 806.302 576.498 805.74 575.91C804.64 574.45 804.47 572.52 804.34 570.7L803.82 563.48C806.839 564.677 809.353 566.877 810.94 569.71C807 563.61 808.94 554.91 811.85 548.25C812.391 546.21 813.577 544.4 815.232 543.089C816.887 541.779 818.921 541.039 821.03 540.98C837.06 538.24 856.64 531.45 869.66 541.24Z" fill="#3F3D56"/>
<path opacity="0.1" d="M862.351 582.3C862.351 582.3 854.471 587.56 854.471 591.5C854.471 595.44 852.471 630.9 852.471 630.9V655.9C852.471 655.9 853.781 669.04 852.471 672.32C851.161 675.6 852.471 690.71 852.471 692.68C852.471 694.65 854.471 672.32 854.471 672.32V648.64L856.471 594.78L862.351 582.3Z" fill="black"/>
<path d="M818.399 400.16L813.81 398.37C804.43 394.61 795.039 390.84 785.959 386.43C779.359 383.22 772.67 379.43 768.56 373.38C767.24 371.38 766.219 369.28 764.909 367.31C763.404 365.203 761.732 363.22 759.909 361.38L747.649 348.28C746.709 350.03 747.91 352.09 748.87 353.82C749.874 355.643 750.637 357.59 751.139 359.61C751.375 360.261 751.35 360.977 751.069 361.61C750.628 362.145 750.051 362.553 749.399 362.79C748.283 363.475 747.428 364.513 746.969 365.74C746.511 366.966 746.476 368.311 746.87 369.56C747.308 370.795 748.061 371.894 749.053 372.749C750.046 373.605 751.244 374.188 752.529 374.44C753.394 374.54 754.244 374.745 755.06 375.05C756.54 375.78 757.24 377.45 758.3 378.7C760.23 380.99 763.299 381.86 766.219 382.6C770.759 387.77 775.469 392.72 780.009 397.89C786.869 405.71 793.889 413.67 802.849 418.97C806.031 420.915 809.516 422.314 813.159 423.11C814.364 415.346 816.115 407.677 818.399 400.16Z" fill="#A1616A"/>
<path opacity="0.15" d="M818.399 400.16L813.81 398.37C804.43 394.61 795.039 390.84 785.959 386.43C779.359 383.22 772.67 379.43 768.56 373.38C767.24 371.38 766.219 369.28 764.909 367.31C763.404 365.203 761.732 363.22 759.909 361.38L747.649 348.28C746.709 350.03 747.91 352.09 748.87 353.82C749.874 355.643 750.637 357.59 751.139 359.61C751.375 360.261 751.35 360.977 751.069 361.61C750.628 362.145 750.051 362.553 749.399 362.79C748.283 363.475 747.428 364.513 746.969 365.74C746.511 366.966 746.476 368.311 746.87 369.56C747.308 370.795 748.061 371.894 749.053 372.749C750.046 373.605 751.244 374.188 752.529 374.44C753.394 374.54 754.244 374.745 755.06 375.05C756.54 375.78 757.24 377.45 758.3 378.7C760.23 380.99 763.299 381.86 766.219 382.6C770.759 387.77 775.469 392.72 780.009 397.89C786.869 405.71 793.889 413.67 802.849 418.97C806.031 420.915 809.516 422.314 813.159 423.11C814.364 415.346 816.115 407.677 818.399 400.16Z" fill="black"/>
<path d="M809.999 426.27C808.529 426.01 806.879 425.65 806.079 424.39C805.55 423.322 805.398 422.106 805.649 420.94C806.445 413.403 808.123 405.986 810.649 398.84C812.879 402.97 817.269 405.38 821.429 407.55C825.143 409.615 829.015 411.38 833.009 412.83C832.009 412.51 829.559 427.89 828.179 428.83C826.439 430.05 822.239 428.4 820.309 428.07L809.999 426.27Z" fill="#80CBC4"/>
<path d="M820.651 421.73C832.26 421.73 841.671 412.319 841.671 400.71C841.671 389.101 832.26 379.69 820.651 379.69C809.042 379.69 799.631 389.101 799.631 400.71C799.631 412.319 809.042 421.73 820.651 421.73Z" fill="#A1616A"/>
<path d="M816.381 418.11C816.381 418.11 830.171 429.93 824.261 437.81C818.351 445.69 815.061 450.95 822.941 451.61C830.821 452.27 857.091 438.47 857.091 438.47C857.091 438.47 832.791 418.77 836.731 406.95C840.671 395.13 816.381 418.11 816.381 418.11Z" fill="#FBBEBE"/>
<path d="M829.611 436.61C826.672 437.316 823.986 438.825 821.855 440.969C819.724 443.113 818.23 445.807 817.541 448.75C815.991 455.83 819.281 463.75 816.181 470.27C814.721 473.37 812.011 475.69 810.181 478.6C808.379 481.629 807.563 485.144 807.846 488.657C808.129 492.17 809.497 495.509 811.761 498.21C813.131 499.77 814.891 501.28 815.051 503.34C815.027 504.279 814.934 505.215 814.771 506.14C814.611 508.37 815.651 510.49 816.211 512.65C816.681 514.44 816.701 516.59 815.661 518.03C814.612 519.539 814.13 521.37 814.301 523.2C814.801 526 813.631 528.79 813.431 531.62C813.341 532.84 813.431 534.06 813.321 535.28C813.175 536.441 812.934 537.588 812.601 538.71L810.841 545.2C820.381 549.28 830.521 550.75 840.841 550.56C850.081 550.38 859.191 548.47 868.231 546.56C870.981 545.98 873.731 545.4 876.441 544.65C870.721 537.17 870.111 527.26 869.951 517.85C869.702 502.161 868.53 486.501 866.441 470.95C869.211 465.72 870.441 459.89 871.581 454.08C872.093 451.74 872.308 449.344 872.221 446.95C871.941 441.95 869.641 437.2 867.391 432.67C865.331 428.53 863.101 424.17 858.511 422.38C857.403 421.913 856.194 421.737 854.998 421.868C853.803 421.999 852.661 422.434 851.681 423.13C848.211 425.75 849.241 430.27 848.351 434.13C847.181 439.13 842.571 442.72 837.661 444.13C833.996 445.09 830.2 445.445 826.421 445.18C826.051 445.159 825.694 445.035 825.39 444.823C825.086 444.611 824.847 444.318 824.699 443.978C824.552 443.638 824.502 443.263 824.556 442.896C824.609 442.529 824.763 442.184 825.001 441.9C826.611 440.12 828.231 438.31 829.611 436.61Z" fill="#80CBC4"/>
<path d="M845.889 517.86C838.109 524.22 830.239 530.64 821.259 535.14C815.989 537.78 810.389 539.73 805.259 542.57C803.991 543.127 802.938 544.082 802.259 545.29C801.851 546.499 801.796 547.8 802.1 549.04L804.379 564.76C805.009 569.02 809.099 571.76 812.379 574.48C812.199 573.05 811.909 571.94 812.589 570.67C812.825 570.273 813.082 569.889 813.36 569.52C814.76 567.4 814.809 564.65 814.469 562.13C814.129 559.61 813.47 557.13 813.6 554.55C813.571 554.123 813.654 553.696 813.84 553.31C814.026 552.925 814.308 552.594 814.659 552.35C825.829 546.98 837.859 542.86 849.149 537.76C852.137 536.552 854.951 534.955 857.519 533.01C860.1 531.03 861.837 528.147 862.379 524.94C862.431 524.732 862.44 524.516 862.406 524.304C862.372 524.093 862.295 523.891 862.18 523.71C861.953 523.461 861.657 523.287 861.329 523.21C856.269 521.37 850.929 519.68 845.889 517.86Z" fill="#A1616A"/>
<path opacity="0.1" d="M824.28 451.9C820.42 452.55 816.36 454.55 815.05 458.25C814.579 459.872 814.403 461.566 814.53 463.25C814.411 465.618 814.81 467.983 815.7 470.18C816.358 471.393 817.143 472.532 818.04 473.58C827.28 485.42 831.92 500.29 840.92 512.32C841.72 513.38 843.18 514.76 842.73 516.01C842.567 516.334 842.423 516.668 842.3 517.01C842.259 517.333 842.298 517.662 842.413 517.967C842.528 518.272 842.716 518.544 842.96 518.76C843.44 519.2 843.813 519.744 844.05 520.35C844.22 520.98 843.8 521.8 843.15 521.75C844.23 525.09 847.54 527.04 850.68 528.62C855.9 531.25 861.68 533.32 867.49 532.75C868.58 528.38 870.1 523.44 869.49 518.99C868.852 515.592 867.724 512.304 866.14 509.23L862.23 500.69C858.9 493.4 855.54 486.06 850.9 479.53C849.229 477.463 847.821 475.195 846.71 472.78C845.52 469.69 842.25 467.52 840.27 464.87C837.33 460.87 834.27 456.87 830.33 453.98C828.75 452.76 826.21 451.58 824.28 451.9Z" fill="black"/>
<path d="M824.28 449.93C820.42 450.58 816.36 452.58 815.05 456.27C814.58 457.893 814.404 459.586 814.53 461.27C814.41 463.638 814.809 466.003 815.7 468.2C816.357 469.413 817.142 470.552 818.04 471.6C827.28 483.44 831.92 498.31 840.92 510.34C841.72 511.4 843.18 512.78 842.73 514.03C842.566 514.354 842.422 514.688 842.3 515.03C842.259 515.353 842.297 515.682 842.412 515.987C842.527 516.292 842.715 516.564 842.96 516.78C843.439 517.22 843.812 517.764 844.05 518.37C844.22 519 843.8 519.82 843.15 519.77C844.23 523.11 847.54 525.06 850.68 526.64C855.9 529.27 861.68 531.34 867.49 530.77C868.58 526.4 870.1 521.46 869.49 517.01C868.851 513.612 867.723 510.324 866.14 507.25L862.23 498.71C858.9 491.42 855.54 484.08 850.9 477.55C849.226 475.481 847.818 473.21 846.71 470.79C845.52 467.71 842.25 465.54 840.27 462.89C837.33 458.89 834.27 454.89 830.33 452C828.75 450.79 826.21 449.61 824.28 449.93Z" fill="#80CBC4"/>
<path d="M815.469 366.18C812.679 366.42 809.809 366.68 807.289 367.9C804.769 369.12 802.619 371.52 802.539 374.32C802.539 375.95 803.139 377.57 802.929 379.18C802.579 381.86 800.089 383.67 798.809 386.04C796.569 390.16 798.309 395.4 801.209 399.04C804.109 402.68 808.039 405.48 811.019 409.1C813.37 411.994 815.071 415.361 816.006 418.97C816.941 422.58 817.089 426.348 816.439 430.02C816.069 431.447 815.891 432.916 815.909 434.39C816.139 437.01 817.909 439.18 819.669 441.18C828.231 451.191 836.153 461.732 843.389 472.74C845.56 475.937 847.511 479.278 849.229 482.74C850.929 486.32 852.229 490.14 854.589 493.31C856.768 496.032 859.437 498.321 862.459 500.06C870.082 504.761 878.727 507.55 887.659 508.19L882.509 495.42C881.599 493.15 880.659 490.76 880.959 488.33C881.529 483.73 886.169 480.71 887.679 476.33C888.679 473.51 888.229 470.4 887.409 467.53C885.589 461.06 881.949 455.24 879.989 448.81C878.271 443.172 877.887 437.212 878.869 431.4C879.299 428.84 879.999 426.27 879.679 423.7C878.729 415.88 869.559 412.14 865.319 405.51C862.579 401.25 862.049 396 861.129 391.02C859.799 383.75 857.429 376.49 852.849 370.69C848.269 364.89 841.209 360.69 833.849 361C829.909 361.15 826.139 362.52 822.429 363.86L812.789 367.37" fill="#3F3D56"/>
<g opacity="0.1">
<path d="M858.5 382.51C859.33 387 859.85 391.71 861.95 395.72C861.66 394.16 861.42 392.59 861.13 391.05C860.451 387.13 859.372 383.29 857.91 379.59C858.16 380.56 858.33 381.53 858.5 382.51Z" fill="black"/>
<path d="M876.24 422.89C875.264 428.705 875.647 434.668 877.36 440.31C877.83 441.84 878.36 443.31 879 444.81C878.167 440.393 878.123 435.863 878.87 431.43C879.3 428.87 880 426.3 879.68 423.73C879.386 421.528 878.486 419.451 877.08 417.73C876.93 419.47 876.53 421.18 876.24 422.89Z" fill="black"/>
<path d="M887.411 467.56C886.857 465.681 886.189 463.838 885.411 462.04C885.748 463.969 885.617 465.951 885.031 467.82C883.521 472.19 878.871 475.22 878.311 479.82C878.011 482.25 878.941 484.64 879.861 486.91C880.201 487.76 880.541 488.62 880.861 489.47C880.836 489.1 880.836 488.73 880.861 488.36C881.431 483.76 886.071 480.74 887.581 476.36C888.661 473.54 888.231 470.43 887.411 467.56Z" fill="black"/>
<path d="M859.841 491.55C856.819 489.807 854.15 487.514 851.971 484.79C849.601 481.62 848.301 477.79 846.601 474.22C844.886 470.757 842.935 467.416 840.761 464.22C833.528 453.21 825.609 442.666 817.051 432.65C816.741 432.3 816.441 431.94 816.141 431.58C815.935 432.505 815.857 433.454 815.911 434.4C816.141 437.02 817.911 439.19 819.671 441.19C828.233 451.202 836.155 461.742 843.391 472.75C845.562 475.947 847.513 479.288 849.231 482.75C850.931 486.33 852.231 490.15 854.591 493.32C856.77 496.042 859.439 498.331 862.461 500.07C870.083 504.771 878.729 507.56 887.661 508.2L884.161 499.6C875.539 498.845 867.211 496.089 859.841 491.55Z" fill="black"/>
<path d="M808.39 400.6C805.39 396.98 801.48 394.23 798.58 390.55C798.32 390.21 798.07 389.86 797.82 389.49C797.761 392.99 798.964 396.395 801.21 399.08C804.11 402.77 808.04 405.52 811.02 409.14C812.184 410.546 813.19 412.075 814.02 413.7C813.401 408.894 811.451 404.357 808.39 400.6Z" fill="black"/>
</g>
<path d="M418.04 297.95L410.79 290.66C410.432 290.299 410.006 290.012 409.537 289.816C409.067 289.62 408.564 289.52 408.055 289.52C407.547 289.52 407.043 289.62 406.574 289.816C406.104 290.012 405.678 290.299 405.32 290.66L359.79 335.77L340.53 316.37C339.81 315.65 338.834 315.245 337.815 315.245C336.797 315.245 335.82 315.65 335.1 316.37L327.77 323.62C327.05 324.348 326.646 325.331 326.646 326.355C326.646 327.379 327.05 328.362 327.77 329.09L357.02 358.56C357.747 359.279 358.728 359.683 359.75 359.683C360.773 359.683 361.754 359.279 362.48 358.56L418.04 303.42C418.402 303.062 418.688 302.636 418.884 302.166C419.08 301.697 419.181 301.193 419.181 300.685C419.181 300.176 419.08 299.673 418.884 299.203C418.688 298.734 418.402 298.308 418.04 297.95Z" fill="#6C757D"/>
<path d="M619.04 297.95L611.79 290.66C611.432 290.299 611.006 290.012 610.537 289.816C610.067 289.62 609.564 289.52 609.055 289.52C608.547 289.52 608.043 289.62 607.574 289.816C607.104 290.012 606.678 290.299 606.32 290.66L560.79 335.77L541.531 316.37C540.811 315.65 539.834 315.245 538.815 315.245C537.797 315.245 536.82 315.65 536.1 316.37L528.771 323.62C528.051 324.348 527.646 325.331 527.646 326.355C527.646 327.379 528.051 328.362 528.771 329.09L558.021 358.56C558.748 359.279 559.728 359.683 560.75 359.683C561.773 359.683 562.754 359.279 563.48 358.56L619.04 303.42C619.402 303.062 619.688 302.636 619.884 302.166C620.08 301.697 620.182 301.193 620.182 300.685C620.182 300.176 620.08 299.673 619.884 299.203C619.688 298.734 619.402 298.308 619.04 297.95Z" fill="#6C757D"/>
</g>
</g>
<defs>
<linearGradient id="paint0_linear_368_2225" x1="838.481" y1="786.74" x2="838.481" y2="342.25" gradientUnits="userSpaceOnUse">
<stop stop-color="#808080" stop-opacity="0.25"/>
<stop offset="0.54" stop-color="#808080" stop-opacity="0.12"/>
<stop offset="1" stop-color="#808080" stop-opacity="0.1"/>
</linearGradient>
<clipPath id="clip0_368_2225">
<rect width="1129" height="787" fill="white"/>
</clipPath>
</defs>
</svg>
